<?xml version="1.0" standalone="no"?>
<!DOCTYPE svg PUBLIC "-//W3C//DTD SVG 1.1//EN" "http://www.w3.org/Graphics/SVG/1.1/DTD/svg11.dtd" >
<svg xmlns="http://www.w3.org/2000/svg">
  <metadata>Created by iconfont</metadata>
  <defs>
  <font id="iconfont" horiz-adv-x="1024">
    <font-face
      font-family="iconfont"
      font-weight="400"
      font-stretch="normal"
      units-per-em="1024"
      ascent="896"
      descent="-128"
    />
      <missing-glyph />
      
      <glyph glyph-name="zhankai-copy" unicode="&#59999;" d="M1024 384a512 512 0 1 1-512-512c282.453333-0.597333 512 228.949333 512 512zM168.533333 500.992l79.957334 79.872L512 317.43999999000005 775.509333 580.864l79.957334-79.872L512 157.52533300000005l-343.466667 343.466667z"  horiz-adv-x="1024" />
      
      <glyph glyph-name="zhankai-copy-copy" unicode="&#60000;" d="M0 384a512 512 0 1 1 512 512c-282.453333 0.597333-512-228.949333-512-512zM855.466667 267.00800000000004l-79.957334-79.872L512 450.56000001 248.490667 187.13599999999997l-79.957334 79.872L512 610.474667l343.466667-343.466667z"  horiz-adv-x="1024" />
      
      <glyph glyph-name="xuanzhong" unicode="&#59285;" d="M512 896a512 512 0 1 0 0-1024A512 512 0 0 0 512 896z m0-192a320 320 0 1 1 0-640A320 320 0 0 1 512 704z"  horiz-adv-x="1024" />
      
      <glyph glyph-name="zhankai" unicode="&#59286;" d="M512 896a512 512 0 1 1 512-512c0.597333 282.453333-228.949333 512-512 512zM395.008 40.533333l-79.872 79.957334L578.56 384 315.136 647.509333l79.872 79.957334L738.474667 384l-343.466667-343.466667z"  horiz-adv-x="1024" />
      
      <glyph glyph-name="shouqi" unicode="&#59283;" d="M512.000853-128a512 512 0 1 1-512 512c-0.597333-282.453333 228.949333-512 512-512zM628.992853 727.466667l79.872-79.957334L445.440853 384l263.509334-263.509333-79.872-79.957334L285.526187 384l343.466666 343.466667z"  horiz-adv-x="1024" />
      
      <glyph glyph-name="weixuanzhong" unicode="&#59282;" d="M512 896a512 512 0 1 0 0-1024A512 512 0 0 0 512 896z m0-128a384 384 0 1 1 0-768A384 384 0 0 1 512 768z"  horiz-adv-x="1024" />
      
      <glyph glyph-name="zy_jiaoliu" unicode="&#58965;" d="M704 505.6c83.2 0 149.333 68.267 149.333 151.467 0 85.333-66.133 153.6-149.333 153.6S554.667 742.4 554.667 659.2c0-85.333 66.133-153.6 149.333-153.6z m-339.2 0c83.2 0 149.333 68.267 149.333 151.467 0 83.2-66.133 151.466-149.333 151.466s-149.333-68.266-149.333-151.466S281.6 505.6 364.8 505.6zM576 533.3330000000001c4.267 17.067-51.2 17.067-64 0S435.2 467.2 381.867 467.2c-55.467-2.133-102.4 29.867-115.2 34.133-12.8 4.267-27.734-6.4-27.734-6.4s-68.266-121.6-68.266-153.6 108.8-125.866 119.466-136.533l8.534-226.133s-4.267-19.2 19.2-21.334h151.466s19.2 10.667 21.334 21.334V448c17.066 2.133 81.066 68.267 85.333 85.333zM277.333 298.66700000000003c-10.666 6.4-36.266 38.4-42.666 64s42.666 49.066 42.666 49.066c12.8 6.4 19.2-53.333 21.334-70.4S288 292.26700000000005 277.333 298.66700000000003zM787.2 494.933l-27.733-12.8s-36.267-12.8-57.6-12.8c-19.2 0-49.067 12.8-49.067 12.8l-27.733 12.8c-23.467 6.4-40.534-21.333-40.534-21.333-12.8-12.8-29.866-27.733-53.333-46.933-32-25.6 6.4-68.267 53.333-102.4 0 0 6.4-326.4 10.667-343.467s8.533-21.333 14.933-21.333h147.2c4.267 0 25.6 4.266 29.867 21.333s0 192 0 192c55.467 0 64 74.667 64 74.667V448s-4.267 29.867-21.333 42.667-42.667 4.266-42.667 4.266z"  horiz-adv-x="1024" />
      
      <glyph glyph-name="shaixuan" unicode="&#59159;" d="M839.93 610.282c5.258 5.246 11.167 11.165 15.006 17.923 28.762 35.707 32.198 89.755 8.064 128.98-24.312 39.51-60.35 59.544-107.103 59.544H177.253c-11.213 0-22.8 0-32.89-3.182-24.706-5.976-47.309-20.578-63.69-41.156C63.987 751.44 54.8 725.54 54.8 699.466c0-33.835 12.893-63.821 36.317-84.475 74.405-71.852 148.69-146.108 220.57-217.993v-237.254l0.124-1.997c3.907-31.238 27.638-48.302 56.362-35.966l0.5 0.235c15.541 7.767 24.45 23.409 24.45 42.917V408.845c0 16.464-5.074 29.89-15.086 39.902-35.904 35.909-71.28 73.224-105.485 109.316-35.266 37.21-71.736 75.686-109.853 113.803l-1.867 1.886-2.25 1.11c-0.53 0.364-1.7 1.89-2.588 3.056-0.975 1.263-1.925 2.458-2.923 3.548-6.582 8.433-7.97 15.6-4.897 25.271 5.343 12.092 16.057 25.969 29.074 25.969h583.834c7.109 0 13.963-3.84 19.295-10.819 6.917-9.058 9.49-21.034 6.644-31.489-1.45-5.784-3.864-8.404-11.156-15.71-80.394-77.794-157.185-154.579-238.482-235.872l-0.432-0.437c-8.237-8.227-17.688-20.203-17.688-39.907V-11.52c0-5.04 0-19.243 10.382-30.61 0 0 3.153-7.118 16.747-12.287 16.8-6.385 33.211 0.888 33.211 0.888l4.286 3.206c16.81 12.614 16.81 32.26 16.81 44.001v387.75c40.2 40.103 81.855 79.113 122.165 116.86 41.05 38.428 79.814 74.736 117.067 111.994z m89.82-525.284H709.184c-23.043 0-36.815-18.724-36.815-36.83v-10.388c0-23.05 18.715-36.82 36.815-36.82H929.75c23.054 0 36.825 18.72 36.825 36.821V48.17c0 22.026-14.798 36.83-36.825 36.83z m0 132.327H709.184c-23.043 0-36.815-18.725-36.815-36.83v-7.772c0-23.059 18.715-36.834 36.815-36.834H929.75c23.054 0 36.825 18.724 36.825 36.834v7.772c0 18.105-13.77 36.83-36.825 36.83z m0 127.147H709.184c-23.043 0-36.815-18.724-36.815-36.83v-5.19c0-23.043 18.715-36.82 36.815-36.82H929.75c23.054 0 36.825 18.72 36.825 36.82v5.19c0 22.03-14.798 36.83-36.825 36.83z"  horiz-adv-x="1024" />
      
      <glyph glyph-name="yanglaobaoxian-" unicode="&#59333;" d="M438.3 234.3l-66-66-35.4 35.4c-7.7 7.7-20.2 7.7-27.8 0-7.7-7.7-7.7-20.2 0-27.8l49.3-49.3c7.7-7.7 20.2-7.7 27.8 0l79.9 79.9c7.7 7.7 7.7 20.2 0 27.8-7.6 7.7-20.1 7.7-27.8 0z m0 0M899.8 701.5c-8.2 29-61.1 46.7-82.4 46.7l-4.1-0.1-33.3 36.8-4.8 4.8c-7.8 7.8-27.9 27-45.7 37.1-7.3 4.2-17 6-31.2 6-29.9 0-82-8.8-129.8-21.7-91.7-25-106.7-47.5-111.8-55-12.3-18.9-17.7-39.8-20.2-49.8l-13.7-61.1c-14.2-6.8-26.7-21.8-32.9-30.2-15.3-20.3-21.2-37.9-17.4-51.9 2.5-9.5 7.8-18 15.4-27.8l-5.2-4.8c-8.9-3.3-17.1-7.9-24.5-13.9-73.8-44.1-141-119.7-189.2-213.2-46.7-90.5-72.4-190.4-72.4-280.9-0.1-6.9-0.3-14-0.9-20.9-0.8-12-1.6-24.5 1.1-42.4l1.3-20.6 515.5-2.3 3.9 199.3c13.3-14.4 15.3-38.5 67.6-38.5 29.1 0 46.7 27.2 46.7 51l11.6-2.3 19.9-207.4 44.4-0.1 19 226.8c0.5 31.9 7.3 60.2-12.7 85.2-21.4 26.7-39 36.1-71.8 35.9-10.3 0-20.4-1.2-32.2-3L561.5 434.3c25-11.8 52.2-18 79.8-17.9 100.5 0 182.1 79.5 182.1 177.4 0 10.9-1 21.6-1.3 34.7l41.6 11.1c13.5 3.6 24.8 12.4 31.8 24.4 6.4 11.3 8 24.9 4.3 37.5zM490.3 152.9s-20.9-72.5-109.8-101c-89 28.5-109.8 101-109.8 101V257.1c0 10.9 9.4 13.1 9.4 13.1 34.6 0 80.7 45 100.6 45 19.9 0 66-45 100.6-45 0 0 9.2-2.3 9.1-13.1v-104.3h-0.1z m0 0"  horiz-adv-x="1024" />
      
      <glyph glyph-name="zhengcezc" unicode="&#59158;" d="M884.054 872.106H264.192c-24.883 0-45.056-20.173-45.056-45.056v-103.082h-90.794c-12.442 0-22.528-10.086-22.528-22.528v-776.874c0-12.442 10.086-22.528 22.528-22.528h632.15c12.442 0 22.528 10.086 22.528 22.528v92.842h101.034c24.883 0 45.056 20.173 45.056 45.056V827.05c0 24.883-20.173 45.056-45.056 45.056z m-146.09-925.014H150.87v731.82h68.266v-616.448c0-24.883 20.173-45.056 45.056-45.056h473.772v-70.316z m146.09 115.372H264.192V827.05h300.876v-297.642a9.216 9.216 0 0 1 15.733-6.517l92.98 92.982 91.116-91.116a9.212 9.212 0 1 1 15.731 6.517V827.05h103.424v-764.586zM413.014 384h324.95v-45.056h-324.95z m0-152.918h324.95v-45.056h-324.95z"  horiz-adv-x="1024" />
      
      <glyph glyph-name="a-dianhua" unicode="&#59157;" d="M495.829333 896C222.037333 896 0.426667 674.304 0.426667 400.512S222.037333-94.976 495.786667-94.976c273.834667 0 495.488 221.696 495.488 495.488S769.706667 896 495.829333 896z m238.08-725.205333c-7.68-18.645333-22.826667-31.872-49.834666-47.616l-21.248-12.544c-62.421333-38.613333-205.909333 49.536-308.906667 200.746666-103.253333 151.210667-130.261333 312.746667-66.901333 352l8.362666 5.461334 9.045334 5.802666c32.170667 20.608 52.437333 28.970667 76.885333 24.746667 24.106667-4.138667 45.056-22.186667 62.421333-54.656 36.693333-69.205333 28.586667-101.973333-18.688-131.925333-3.541333-2.261333-15.445333-9.642667-16.725333-10.282667-11.562667-7.082667 8.064-55.338667 53.76-122.282667 46.634667-68.522667 85.248-105.514667 98.133333-97.493333l16.725334 10.282667c5.461333 3.541333 11.264 6.442667 17.365333 9.386666 37.632 17.024 71.082667 5.12 114.858667-46.378666 27.306667-31.829333 35.413333-60.16 24.746666-85.248z"  horiz-adv-x="1024" />
      
      <glyph glyph-name="a-weixin1" unicode="&#59156;" d="M561.7152 238.7456c0-156.672 146.944-283.8016 327.168-283.8016 43.776 0 86.528 7.68 124.0064 20.8384 10.3936-5.5296 85.4528-73.472 102.0416-61.3888 11.52 9.8304-27.0336 83.3024-30.208 96.4608 80.2816 51.456 132.352 133.6832 132.352 226.816 0 156.672-146.8928 283.8528-327.168 283.8528-180.224 0-328.192-126.0544-328.192-282.7776z m395.9296 100.864c0 27.392 20.8384 49.3056 46.8992 49.3056 26.0608 0 46.8992-21.9136 46.8992-49.3056 0-27.392-20.8384-49.3568-46.8992-49.3568-26.0608-1.024-46.8992 21.9648-46.8992 49.3568z m-230.2464 0c0 27.392 20.8384 49.3056 46.8992 49.3056 26.0608 0 46.848-21.9136 46.848-49.3056 0-27.392-20.7872-49.3568-46.848-49.3568-26.112-1.024-47.9232 21.9648-46.8992 49.3568zM515.584 258.1504c0 169.216 174.1824 305.92 387.8912 305.92 11.264 0 22.5792 0 32.768-1.0752C912.4864 750.592 712.3456 896 469.248 896 210.3296 896 0 730.0608 0 525.0048c0-121.4976 74.5984-229.9904 188.8256-297.216-4.5056-16.2816-58.7776-112.8448-43.008-125.8496 23.7568-15.1552 131.2256 73.728 145.92 80.2816 54.272-18.432 114.176-28.16 177.5104-28.16 22.5792 0 45.2096 1.024 67.8912 4.3008a233.5744 233.5744 0 0 0-21.5552 99.7888z m117.6576 463.2064c37.2736 0 67.7888-29.3376 67.7888-65.0752 1.1264-35.84-29.3888-65.024-67.84-65.024-37.376 0-67.84 29.184-67.84 65.024 0 35.7376 30.5152 65.024 67.8912 65.024zM304.128 591.2064c-37.3248 0-67.84 29.2864-67.84 65.024 0 35.84 30.5664 65.1264 67.8912 65.1264 37.3248 0 67.84-29.3376 67.84-65.0752 0-35.84-30.5152-65.024-67.8912-65.024z"  horiz-adv-x="1228" />
      
      <glyph glyph-name="youjiantou" unicode="&#59142;" d="M222.01896-4.470808a71.679268 71.679268 0 0 1 3.413299-101.374965 82.068496 82.068496 0 0 1 112.169521 0l448.464756 419.153055a71.636602 71.636602 0 0 1 20.373125 70.825943 71.593936 71.593936 0 0 1-20.373125 70.825944L337.60178 873.834893a82.068496 82.068496 0 0 1-112.169521 0 71.679268 71.679268 0 0 1 0-104.702931l412.155792-385.190735L225.432259-1.057509a68.863297 68.863297 0 0 1-1.749316-1.663983l-1.663983-1.749316z"  horiz-adv-x="1024" />
      
      <glyph glyph-name="zuojiantou" unicode="&#59145;" d="M801.978522-4.470808a71.679268 71.679268 0 0 0-3.413298-101.374965 82.068496 82.068496 0 0 0-112.169522 0L237.930947 313.307282a71.636602 71.636602 0 0 0-20.373126 70.825943 71.593936 71.593936 0 0 0 20.373126 70.825944L686.395702 873.834893a82.068496 82.068496 0 0 0 112.169522 0 71.679268 71.679268 0 0 0 0-104.702931L386.409431 383.96256l412.155793-385.020069 1.749315-1.663983 1.663983-1.749316z"  horiz-adv-x="1024" />
      
      <glyph glyph-name="yanglaozixun" unicode="&#59146;" d="M735.713882 894.825412a92.009412 92.009412 0 0 0 92.009412-92.009412v-818.221176l52.555294-1.761883 2.379294 743.755294h39.695059a92.009412 92.009412 0 0 0 92.009412-91.994353v-636.596706a92.009412 92.009412 0 0 0-91.527529-91.994352l-822.829177-4.291765A92.009412 92.009412 0 0 0 7.529412-6.776471V802.831059A91.994353 91.994353 0 0 0 99.523765 894.825412h636.190117z m-138.014117-701.83153H179.712a40.734118 40.734118 0 1 1 0-81.468235h417.987765a40.734118 40.734118 0 1 1 0 81.468235z m0 160.346353H179.712a40.734118 40.734118 0 1 1 0-81.483294h417.987765a40.734118 40.734118 0 1 1 0 81.468235zM349.274353 681.908706H178.401882a39.424 39.424 0 0 1-39.424-39.424v-170.857412a39.424 39.424 0 0 1 39.424-39.439059h170.872471a39.424 39.424 0 0 1 39.439059 39.439059V642.484706a39.439059 39.439059 0 0 1-39.439059 39.424z m248.425412-168.222118h-115.681883a40.749176 40.749176 0 1 1 0-81.498353h115.681883a40.749176 40.749176 0 1 1 0 81.498353z m0 168.222118h-115.681883a40.749176 40.749176 0 1 1 0-81.483294h115.681883a40.749176 40.749176 0 1 1 0 81.483294z"  horiz-adv-x="1054" />
      
      <glyph glyph-name="changyongdianhua1" unicode="&#59147;" d="M916.569043 890.045217s-32.678957-0.044522-62.775652-0.111304l-49.530434-0.066783L738.994087 889.900522s-3.450435 0.133565-5.197913 0.133565l-571.770435-1.413565a91.38087 91.38087 0 0 1-91.380869-91.392v-135.880348h103.757913c18.921739 0 34.270609-15.34887 34.270608-34.270609v-22.850782a34.281739 34.281739 0 0 0-34.281739-34.28174H162.971826v11.430957c0 18.921739-15.337739 34.281739-34.259478 34.281739H37.298087a34.393043 34.393043 0 0 1-2.960696-0.144696c-13.545739-1.179826-24.598261-10.351304-29.005913-22.706086a65.536 65.536 0 0 1-0.166956 0.489739A34.114783 34.114783 0 0 1 3.027478 581.398261v-22.861913c0-18.921739 15.34887-34.259478 34.281739-34.259478h33.324522V272.940522h103.746783a34.281739 34.281739 0 0 0 34.281739-34.270609v-22.839652a34.281739 34.281739 0 0 0-34.281739-34.281739H162.971826v11.430956c0 18.921739-15.337739 34.259478-34.270609 34.259479H37.309217a34.326261 34.326261 0 0 1-2.960695-0.122435c-13.545739-1.190957-24.598261-10.373565-29.005913-22.717218l-0.166957 0.489739A34.237217 34.237217 0 0 1 3.027478 192.979478v-22.850782c0-18.93287 15.34887-34.281739 34.270609-34.281739h33.324522v-159.47687a91.38087 91.38087 0 0 1 91.392-91.38087h754.554434a91.38087 91.38087 0 0 1 91.38087 91.38087V798.664348a91.38087 91.38087 0 0 1-91.38087 91.380869zM491.709217 720.272696a37.175652 37.175652 0 0 0 50.799305-13.612522l46.614261-80.729044a37.209043 37.209043 0 0 0-13.612522-50.810434l-33.035131-19.055305-83.789913 145.14087 33.024 19.066435z m244.134957-610.704696c-58.067478-33.536-114.921739-15.838609-163.817739 20.224-76.521739 56.464696-132.585739 158.47513-144.461913 179.033043-9.282783 16.061217-58.10087 96.26713-75.909565 180.45774-14.914783 70.689391-8.681739 143.782957 59.302956 183.028869l17.118609 9.894957 82.899478-143.582609-0.701217-0.400696a74.384696 74.384696 0 0 1-27.225044-101.620869l83.478261-144.584348a74.406957 74.406957 0 0 1 101.609739-27.225044l0.701218 0.411827 84.146086-145.753044-17.140869-9.883826z m81.385739 46.881391l-32.434087-20.090434-83.812174 145.152 32.445218 20.068173a37.175652 37.175652 0 0 0 50.810434-13.59026l46.603131-80.751305a37.175652 37.175652 0 0 0-13.612522-50.788174z"  horiz-adv-x="1024" />
      
      <glyph glyph-name="zhengceyaowen" unicode="&#59148;" d="M1027.117851 889.886567L534.91009 774.57194 42.748179 889.886567C19.211463 889.840716 0.137552 871.913075 0 849.721313v-731.579223c0-22.10006 26.333612-33.593313 42.824597-40.149971 9.873194-3.958448 471.987582-196.82197 492.085493-196.82197 20.128478 0 482.242866 192.756537 492.207761 196.82197 16.460418 6.556657 42.79403 18.034627 42.79403 40.149971V849.721313c-0.137552 22.207045-19.257313 40.134687-42.79403 40.165254zM418.907701 362.511284c14.97791-51.459821 15.237731-84.044418 0.825314-102.155463-8.161433-10.041313-21.030209-15.680955-34.433911-15.084896-21.335881 0-50.099582 11.401552-87.697194 34.816-37.597612-23.307463-66.391881-34.571463-87.68191-34.571462-13.449552-0.580776-26.333612 5.135284-34.449194 15.253015-14.412418 18.187463-14.030328 50.77206 1.192119 102.23188-51.2 38.545194-71.328478 68.39403-62.662686 93.184 8.650507 24.774687 43.466507 37.811582 109.231761 40.547343 23.12406 57.741373 46.935881 84.732179 74.889552 84.73218 27.938388 0 51.79606-26.990806 74.797851-85.007284 65.719403-2.812179 100.413134-15.849075 109.109493-40.761313 8.711642-24.912239-11.447403-54.791642-63.121195-93.184z m538.333612-76.677732l-318.739104-63.182328c-10.652657-2.139701-20.831522 5.807761-22.772537 17.744239-0.947582 5.76191 0.229254 11.69194 3.209552 16.506268 2.995582 4.783761 7.580657 8.023881 12.71594 9.017314l318.739105 63.014209c10.637373 2.154985 20.800955-5.777194 22.726686-17.728955 1.925731-11.936478-5.150567-23.368597-15.78794-25.523583l-0.091702 0.152836z m-341.526925 83.203821a21.060776 21.060776 0 0 0 3.270687 15.253015c2.995582 4.432239 7.55009 7.427821 12.685373 8.360119l318.723821 58.566687c5.104716 0.993433 10.392836-0.198687 14.656955-3.316537a20.846806 20.846806 0 0 0 4.890746-28.427463 19.410149 19.410149 0 0 0-12.700657-8.344836l-318.739104-58.58197a18.905791 18.905791 0 0 0-14.687522 3.301254 20.388299 20.388299 0 0 0-8.100299 13.189731z m341.526925 168.883582l-318.739104-63.090627c-10.637373-2.139701-20.816239 5.777194-22.726687 17.713672-1.925731 11.921194 5.135284 23.322746 15.772657 25.493015l318.739105 63.075343c10.637373 2.139701 20.816239-5.76191 22.726686-17.698388 1.925731-11.921194-5.150567-23.33803-15.772657-25.477731z"  horiz-adv-x="1069" />
      
      <glyph glyph-name="kunnanjintie" unicode="&#59149;" d="M419.955056 278.988225l172.58427-46.022472c34.252225-15.624629 55.549124-53.673708 46.022472-92.044944-9.457618-36.162157-45.976449-59.714157-80.539326-57.52809l-149.573034 34.516854c-17.753169 1.219596-30.420854-6.742292-34.516854-23.011236-1.035506-2.071011-0.379685-7.984899 0-11.505618 5.12-6.477663 9.722247-10.170966 11.505618-11.505618l115.05618-23.011236c75.96009-14.059865 160.491865 1.633798 230.11236 46.022472l149.573033 92.044944c23.448449 15.670652 54.904809 8.997393 69.033708-11.505618 18.006292-26.854112 13.461573-59.196404-11.505618-80.539326l-161.078652-126.561798c-86.867416-78.422292-203.810517-107.577528-310.651685-80.539326l-138.067416 23.011236c-31.548404 7.628225-59.115865 8.203506-80.539325 0l-172.58427-23.011236c-20.215371-4.142022-36.771955 0.494742-46.022472 11.505618-15.808719 10.493124-23.011236 26.267326-23.011236 46.022472v184.089888c0 26.693034 14.186427 47.667775 34.516854 57.52809l230.112359 92.044944c45.52773 14.336 96.486112 16.418517 149.573034 0z m517.752809 540.764045c0.747865-5.994427 1.932944-7.248539 0-11.505618 106.334921-101.514067 106.334921-268.886292 0-368.179776l-241.617977-253.123595c-8.491146 42.179596-38.233169 77.053124-80.539326 92.044944h-11.505618l-172.58427 57.52809c-52.96036 13.634157-110.891146 12.863281-161.078652 0l-23.011235-11.505618-46.022472-11.505618-115.05618 126.561797c-106.334921 99.293483-106.334921 266.665708 0 368.179776 45.815371 52.603685 112.778067 80.539326 184.089887 80.539326a250.132135 250.132135 0 0 0 184.089888-80.539326l57.52809-57.52809 57.52809 57.52809c100.352 104.954247 265.089438 106.542022 368.179775 11.505618z"  horiz-adv-x="1024" />
      
      <glyph glyph-name="yibaochaxun" unicode="&#59150;" d="M628.364931 837.680026c124.235486-50.010171 142.882024-95.212423 101.288151-277.611065-4.291044-18.958614 16.59854-12.678086 16.59854-36.473877 0-23.834801-0.380343-13.341247-4.749406-35.342601-2.935464-14.677322-10.659344-29.315635-23.200897-43.92469a347.789145 347.789145 0 0 0-33.752964-78.652893c-47.601335-3.705902-94.929604-25.317162-131.354719-61.381439-73.562153-73.123297-74.439867-216.834273-1.76518-290.981569l1.76518-1.765179 138.990827-138.659247c-60.035611-1.492113-134.504736-0.682666-220.852251-0.526628-230.643634 0.468114-458.498089-4.564111-463.003685 43.095738 0 22.918078 19.699795 241.049416 297.64244 291.449683 27.345655 13.750847 50.1272 22.918078 50.1272 36.668925v47.572078s-67.749739 72.508897-98.060116 153.180531c-3.705902 9.879154-28.233121 21.143146-30.85651 55.354472-2.652646 34.172317-2.213789 6.241519-2.213789 27.872283 0 14.414008 4.622625 25.258647 13.92639 32.514413C185.587668 767.687241 263.080028 879.127614 471.361469 894.380326c78.018988 5.705139 139.088351-1.52137 157.003462-56.739309V837.680026z m187.001762-576.726113c57.860832 51.911884 146.100308 50.000419 201.65958-4.378816l1.501865-1.492113a143.008805 143.008805 0 0 0 41.447588-101.717256 143.008805 143.008805 0 0 0-42.949453-101.112608l-168.920862-166.57054-0.6144-0.585142a45.992194 45.992194 0 0 0-64.843531 0.585142L613.697361 52.360396l-1.384837 1.384837a143.047815 143.047815 0 0 0 1.384837 202.829864c55.569024 54.35973 143.788995 56.280948 201.669332 4.378816z m0.048762-47.601335a24.458953 24.458953 0 0 1-24.458953-24.468705v-60.884068h-61.225401a24.380934 24.380934 0 0 1 0-48.761868h61.225401v-60.884068a24.468705 24.468705 0 0 1 48.927658 0l-0.029257 60.884068h61.244906a24.380934 24.380934 0 0 1 0 48.761868h-61.244906v60.884068A24.468705 24.468705 0 0 1 815.415455 213.333073v0.029257z"  horiz-adv-x="1063" />
      
      <glyph glyph-name="yanglaojin" unicode="&#59151;" d="M981.608388 242.74765l-47.104 7.694913a113.952311 113.952311 0 0 1-75.219262-13.48101l-242.737709-137.196116a4.931107 4.931107 0 0 0-2.833398-0.695922 5.269126 5.269126 0 0 0-2.833398 0.815223L537.271922 142.415534h61.976855a53.287767 53.287767 0 0 1 53.228116 53.228116v30.898952a53.287767 53.287767 0 0 1-53.228116 53.178408H317.171573c-4.632854 0-9.096699-0.407612-13.371651-0.755573l-2.952699-0.45732c-6.014757-0.894757-11.979806-2.087767-17.885204-3.588971L31.734058 201.071845a5.786097 5.786097 0 0 1-3.946874-7.177942l54.053282-183.186641a5.786097 5.786097 0 0 1 7.168-3.827573l182.272 53.536311a8.897864 8.897864 0 0 0 1.620505 0 6.591379 6.591379 0 0 0 2.952699-0.765515l305.112233-176.306951c6.93934-4.334602 14.952388-6.660971 23.144388-6.71068a45.205126 45.205126 0 0 1 25.629826 8.221826L992.782913 206.002951a20.987029 20.987029 0 0 1-11.164583 36.744699zM268.795029 323.75301a195.822602 195.822602 0 0 0 48.376544 6.82998h282.136854a104.159689 104.159689 0 0 0 101.664311-81.35332 347.633087 347.633087 0 0 1 154.564349 364.882019A347.643029 347.643029 0 1 1 249.985243 318.384466l18.750136 5.786097 0.05965-0.407612z m98.363651 229.545009l137.653437 137.653437a14.922563 14.922563 0 0 0 21.076504 0L663.412816 553.52668a14.972272 14.972272 0 0 0 0-21.175923l-137.414835-137.494369a14.992155 14.992155 0 0 0-21.126214 0l-137.653437 137.196117a14.932505 14.932505 0 0 0 0 21.126213l-0.05965 0.119301z"  horiz-adv-x="1024" />
      
      <glyph glyph-name="gaoling" unicode="&#59152;" d="M948.664224 757.291065c-4.153421 16.718953-54.415551 37.696598-71.249345 33.552748l-8.421683-4.15342-50.25256 54.520822a848.86729 848.86729 0 0 1-8.297272 8.192c0 0.114841-0.124411 0.114841-0.124411 0.220112l0.124411-0.105271c-11.005607 10.766355-29.858692 28.71028-41.964859 37.91671-29.284486 16.718953-251.435065-29.284486-280.709982-75.393196-12.565533-20.987215-16.718953-41.850019-20.987215-50.262131l-16.709383-87.958729-8.421682-4.15342c-16.709383-4.153421-50.252561-50.262131-46.10871-67.086355 4.153421-16.718953 20.977645-25.131065 37.706168-20.987215l67.086355 16.718953c16.709383-83.805308 92.217421-146.642542 180.18572-146.642542 100.524262 0 184.32 79.661458 184.32 180.185719 0 20.987215-4.13428 41.850019-12.555963 62.827664l75.393196 25.140636c16.718953 3.923738 25.131065 20.747963 20.987215 37.466915zM793.60957 241.979813c-16.718953 0-29.284486-4.14385-46.11828-8.412112 0 0 0 4.153421-4.143851 4.15342L462.637458 518.555514c-20.977645 20.977645-46.11828 25.131065-71.239776 16.709383h-4.15342c-8.421682 0-16.718953-8.412112-25.131066-12.565533C190.339589 417.897271 68.837682 166.586617 68.837682-38.711028c0-29.284486-4.153421-41.850019 0-71.239776H613.538692V162.327925l25.131065-25.131065c4.14385-4.153421 8.421682-8.421682 16.718953-12.565533 4.14385-25.131065 25.131065-46.10871 50.262131-46.10871s46.10871 16.718953 50.262131 41.840448v12.575103c0 16.709383 12.565533 29.284486 29.284486 29.284486 16.709383 0 29.284486-12.575103 29.284486-29.284486v-247.166804h83.795738V124.631327c8.421682 67.086355-41.840449 117.348486-104.668112 117.348486zM334.398206-60.262879c-80.561047 0-145.848224 65.296748-145.848225 145.848225 0 80.561047 65.287178 145.848224 145.848225 145.848224s145.848224-65.287178 145.848224-145.848224c0-80.551477-65.287178-145.848224-145.848224-145.848225zM346.848897 100.39985c0.669907-1.799178 0.899589-3.703626 0.899589-5.608074v-12.010468h44.424374c9.656224 0 17.39843-7.847477 17.39843-17.608972s-7.751776-17.608972-17.39843-17.608972h-44.424374v-35.457196c0-9.541383-7.742206-17.283589-17.38886-17.283589a17.283589 17.283589 0 0 0-17.38886 17.168748v35.562467H266.622804a17.45585 17.45585 0 0 0-17.38886 17.608972c0 9.761495 7.847477 17.618542 17.38886 17.618542h46.338392V94.791776c0 1.904449 0.334953 3.808897 0.899589 5.608074H266.622804a17.44628 17.44628 0 0 0-17.38886 17.608972c0 9.761495 7.847477 17.608972 17.38886 17.608972h15.025046v16.163888c0 9.531813 7.866617 17.168748 17.39843 17.168748 9.646654 0 17.38886-7.751776 17.38886-17.168748v-16.269159h27.829832v16.154318c0 9.541383 7.847477 17.168748 17.38886 17.168748 9.531813 0 17.38886-7.751776 17.38886-17.168748v-16.154318h13.120598c9.656224 0 17.39843-7.847477 17.39843-17.608972s-7.751776-17.618542-17.39843-17.618542h-45.323963v0.114841z"  horiz-adv-x="1024" />
      
      <glyph glyph-name="laonianzheng" unicode="&#59153;" d="M1234.610087 890.201043H103.579826C47.816348 890.201043 3.33913 834.415304 3.33913 767.632696v-757.693218c0-66.782609 44.633043-122.568348 100.251827-122.568348h1131.03026c55.785739 0 100.262957 55.785739 100.262957 122.568348V767.632696c5.654261 66.927304-38.978783 122.568348-100.262957 122.568347zM660.769391 227.250087v-150.372174h-44.621913v150.372174c0 11.163826-11.152696 16.65113-16.662261 16.65113-11.152696 0-16.65113-11.152696-16.65113-16.65113v-5.498435c0-16.662261-16.662261-27.826087-33.469217-27.826087-16.662261 0-33.469217 11.163826-33.469218 27.826087-5.509565 0-5.509565 5.498435-11.152695 5.498435l-16.662261 16.65113V71.234783H153.700174v44.621913c0 128.222609 72.448 289.747478 178.354087 351.031652 5.498435 5.498435 11.152696 5.498435 16.662261 11.152695 16.65113 5.509565 33.458087 0 44.621913-11.152695L566.02713 294.177391c11.152696 5.498435 16.662261 5.498435 27.814957 5.498435 16.65113 0 38.956522-5.498435 50.120348-22.316522 11.152696-11.152696 22.305391-33.469217 16.806956-50.120347z m22.316522 362.184348l-50.131478-11.152696c5.509565-11.152696 5.509565-22.316522 5.509565-38.956522 5.498435-61.295304-38.978783-117.069913-100.251826-122.579478-61.284174-5.498435-117.069913 38.978783-122.568348 100.262957l-38.967652-11.163826h-16.662261c-5.509565 0-5.509565 5.498435-11.152696 11.163826-5.509565 11.152696 16.662261 38.956522 27.814957 38.956521h5.498435l11.163826 55.78574c0 11.152696 5.498435 22.305391 11.152695 33.458086 16.65113 27.826087 156.026435 55.785739 172.688696 44.633044 11.152696-5.498435 22.305391-16.662261 27.826087-22.316522l5.487304-5.498435 27.826087-33.469217h5.498435c11.152696 0 44.621913-11.152696 44.621913-22.305391 11.297391-0.155826 5.798957-11.308522-5.353739-16.806957z m481.769739-417.213218a39.15687 39.15687 0 0 0-39.112348-39.123478H811.742609a39.15687 39.15687 0 0 0-39.123479 39.123478 39.15687 39.15687 0 0 0 39.112348 39.112348h314.145392c21.426087 0.155826 38.967652-17.552696 38.967652-39.112348z m0 190.976a39.168 39.168 0 0 0-39.112348-39.112347H811.742609a39.168 39.168 0 0 0-39.123479 39.112347 39.168 39.168 0 0 0 39.112348 39.123479h314.145392c21.426087 0.144696 38.967652-17.552696 38.967652-39.123479z m0 190.998261a39.168 39.168 0 0 0-39.112348-39.134608H811.742609a39.168 39.168 0 0 0-39.123479 39.123478 39.168 39.168 0 0 0 39.112348 39.123478h314.145392c21.426087 0 38.967652-17.552696 38.967652-39.123478z"  horiz-adv-x="1335" />
      
      <glyph glyph-name="zuixinyouhuizhengce" unicode="&#59154;" d="M116.384478-99.75594c2.323104 10.163582 18.034627 50.405254 34.922985 89.393671 16.888358 39.003701 34.403343 87.559642 38.95785 107.90209 43.099701 192.970507 269.342567 461.518328 415.53003 493.18591l20.969075 4.539224-4.218269-42.320239c-10.866627-108.987224-62.907224-326.044657-92.97003-387.71391-25.661134-52.65194-39.278806-65.367881-84.793313-79.123105-19.410149-5.853612-36.787582-13.143881-38.667463-16.170029-1.879881-3.041433 9.124299-7.397254 24.453732-9.689791 15.329433-2.307821 27.86197-5.975881 27.86197-8.161433 0-5.838328-74.186507-54.715224-94.42197-62.204179-22.390448-8.283701-68.867821-7.443104-98.044179 1.757612l-22.925374 7.244418 25.630568 40.073552c32.752716 51.230567 168.470925 283.86197 187.560119 321.505433 19.562985 38.560478 18.325015 42.060418-5.991164 17.087044-57.756657-59.254448-146.21803-185.466269-256.81003-366.347462-41.479642-67.813254-76.723582-124.698746-78.343642-126.379941-1.604776-1.681194-1.024 5.257552 1.299105 15.421135z m774.312119 62.968358c-13.877493 6.847045-24.530149 18.707104-31.713433 35.320358-9.827343 22.726687-123.552478 747.52-124.928 796.167642-0.840597 29.497313 13.189731 56.289433 34.785433 66.376597 10.698507 4.997731 54.149731 13.999761 96.531104 19.990925 74.125373 10.484537 77.961552 10.484537 100.474269-0.244537 13.036896-6.220418 27.754985-19.593552 33.257075-30.246209 9.414687-18.187463 125.264239-760.587463 125.203104-802.372776-0.015284-24.102209-19.608836-55.708657-41.311522-66.682269-15.711522-7.932179-133.563224-29.069373-160.187224-28.733134-6.159284 0.076418-20.602269 4.768478-32.095522 10.438686z m-372.032955 35.274507c53.141015 58.138746 78.25194 112.533015 129.757612 280.942806 5.074149 16.552119 6.327403-10.774925 5.425671-117.439044-1.039284-121.152955-2.598209-141.159164-12.074029-155.60215-19.440716-29.650149-38.636896-37.475343-99.159881-40.379224l-56.090746-2.674626 32.141373 35.152238zM49.992597-18.034627C13.724657 4.447522 14.519403-5.609075 14.534687 434.512239 14.519403 817.839761 15.115463 838.350328 26.134925 856.415522 45.331104 887.899701 71.29791 896 152.820537 896c79.551045 0 104.295164-6.694209 125.783881-33.990687 13.067463-16.628537 13.357851-21.259463 13.357851-213.557492V451.859104l-36.558329-46.003582c-20.113194-25.309612-41.525493-54.409552-47.577791-64.649552-10.897194-18.462567-11.493254-18.64597-64.72597-18.64597-60.03391 0-73.101373-6.602507-73.101373-36.986269 0-26.929672 14.366567-36.986269 52.850627-36.986268 18.416716 0 33.471045-1.299104 33.471045-2.85803 0-1.574209-5.471522-16.750806-12.165732-33.715582-6.694209-16.98006-17.652537-56.610388-24.346746-88.094567-12.50197-58.734806-42.946866-152.927522-49.320119-152.637135-1.971582 0.091701-11.187582 4.890746-20.48 10.667941zM239.065791 410.440597c3.820896 10.912478 3.820896 23.017075 0 33.929552l-5.945313 16.949493-73.789135 1.742328c-64.007642 1.528358-74.813134 0.351522-81.553194-8.879761-9.475821-12.960478-10.041313-35.702448-1.299104-52.040597 5.975881-11.172299 12.272716-11.967045 81.553194-10.377552l75.088239 1.727044 5.960597 16.964777z m-11.86006 134.098149c12.456119 13.755224 13.923343 45.545075 2.751045 59.009911-11.309851 13.632955-133.349254 12.50197-148.678686-1.375523-14.886209-13.449552-14.366567-42.213254 1.054567-57.619104 10.652657-10.66794 20.541134-12.333851 73.024955-12.333851 52.850627 0 62.143045 1.604776 71.848119 12.318567z m144.903642 135.106866c0 212.441791-0.045851 212.334806 128.580776 215.04 71.145075 1.513075 87.42209 0.076418 105.288597-9.246567 40.012418-20.846806 45.942448-35.962269 48.693493-123.904l2.445373-78.649314-33.058388-8.40597c-41.678328-10.606806-131.194269-57.007761-186.245731-96.546388-23.231045-16.659104-47.501373-34.097672-53.951045-38.759164-11.462687-8.253134-11.753075-4.814328-11.753075 140.456119z"  horiz-adv-x="1130" />
      
      <glyph glyph-name="jiaoyipingtai" unicode="&#59141;" d="M45.226667 124.387556L0 60.757333l64.085333 42.780445c120.888889 80.725333 315.192889 82.204444 582.627556 3.100444l30.008889-9.130666c40.391111-12.600889 82.432-26.965333 126.065778-43.121778l31.232-11.719111 3.612444 15.928889c14.193778 62.634667 62.976 111.701333 148.081778 147.228444L1024 221.809778l-39.765333 11.491555a1764.721778 1764.721778 0 0 1-97.28 25.144889l-27.448889 6.030222a1660.814222 1660.814222 0 0 1-94.549334 17.152l-26.510222 3.783112-26.282666 3.299555a1540.295111 1540.295111 0 0 1-13.027556 1.479111l-25.884444 2.56a1469.696 1469.696 0 0 1-38.286223 3.015111l-25.173333 1.393778a1256.106667 1256.106667 0 0 1-166.542222-2.844444l-22.272-2.133334c-33.080889-3.555556-64.739556-8.533333-94.776889-14.848l-19.768889-4.437333c-120.376889-28.501333-212.280889-79.701333-261.205333-148.508444zM938.666667 221.496889l-8.248889-4.124445c-56.945778-29.212444-94.520889-66.56-112.014222-111.985777l-2.133334-5.831111-2.56 0.853333c-290.474667 98.730667-512 125.696-664.832 79.758222L142.222222 178.090667l2.787556 1.820444c147.057778 94.378667 443.079111 122.993778 774.115555 46.222222l19.541334-4.636444zM28.444444 53.219556l14.791112-23.438223c116.394667 62.691556 298.24 68.067556 545.080888 15.388445l30.549334-6.741334 31.203555-7.310222 31.857778-7.907555 32.512-8.476445c10.951111-2.929778 21.987556-5.973333 33.137778-9.102222l33.820444-9.614222 34.417778-10.24 9.073778 26.168889c-371.399111 139.036444-636.871111 153.6-796.444445 41.272889zM801.763556 742.599111v-28.444444H216.376889v28.444444zM522.609778 781.226667v-170.666667h-28.444445v170.666667zM508.387556 663.751111l150.784-355.384889H357.632l150.755556 355.384889z m0-72.817778l-107.804445-254.122666h215.608889l-107.804444 254.122666zM217.6 728.376889l150.784-301.539556H66.844444l150.755556 301.511111z m0-63.601778l-104.732444-209.493333h209.493333L217.6 664.775111zM799.175111 728.376889l150.755556-301.539556h-301.511111l150.755555 301.511111z m0-63.601778l-104.760889-209.493333h209.493334l-104.732445 209.493333zM368.384 426.837333c0-38.684444-67.498667-93.297778-150.755556-93.297777-80.839111 0-146.801778 51.456-150.613333 89.827555l-0.170667 3.470222H368.355556z m-48.213333-28.444444H115.029333l3.214223-2.730667 4.209777-3.242666 4.522667-3.185778c24.974222-16.952889 57.457778-27.278222 90.652444-27.278222 33.166222 0 65.649778 10.325333 90.652445 27.278222 3.128889 2.104889 6.030222 4.266667 8.704 6.428444l3.185778 2.730667zM949.959111 426.837333c0-38.684444-67.498667-93.297778-150.755555-93.297777-80.839111 0-146.801778 51.456-150.613334 89.827555l-0.199111 3.470222h301.568z m-48.241778-28.444444H696.604444l3.185778-2.730667 4.209778-3.242666 4.522667-3.185778c25.002667-16.952889 57.457778-27.278222 90.652444-27.278222 33.194667 0 65.649778 10.325333 90.652445 27.278222 3.128889 2.104889 6.030222 4.266667 8.732444 6.428444l3.157333 2.730667z"  horiz-adv-x="1024" />
      
      <glyph glyph-name="fanhui" unicode="&#59256;" d="M640.124 575.179h-256.05V704.216l-252.46-161.524 252.503-158.796-0.043 126.864h256.05c94.568 0 192.037-65.464 192.037-161.994 0-93.68-98.977-157.599-192.037-157.599l-384.075 0.95v-63.919l384.075-0.95c125.03 0 256.05 63.919 256.05 218.845 0 164.667-128.025 229.086-256.05 229.086z"  horiz-adv-x="1024" />
      
      <glyph glyph-name="shijian" unicode="&#59137;" d="M512-32.540444c-54.727111 0-107.747556 10.695111-157.696 31.857777-48.241778 20.366222-91.591111 49.607111-128.796444 86.812445-37.205333 37.205333-66.446222 80.554667-86.812445 128.796444-21.162667 49.948444-31.857778 103.082667-31.857778 157.696s10.695111 107.747556 31.857778 157.696c20.366222 48.241778 49.607111 91.591111 86.812445 128.796445 37.205333 37.205333 80.554667 66.446222 128.796444 86.812444 49.948444 21.162667 103.082667 31.857778 157.696 31.857778s107.747556-10.695111 157.696-31.857778c48.241778-20.366222 91.591111-49.607111 128.796444-86.812444 37.205333-37.205333 66.446222-80.554667 86.812445-128.796445 21.162667-49.948444 31.857778-103.082667 31.857778-157.696s-10.695111-107.747556-31.857778-157.696c-20.366222-48.241778-49.607111-91.591111-86.812445-128.796444-37.205333-37.205333-80.554667-66.446222-128.796444-86.812445-49.948444-21.162667-102.968889-31.857778-157.696-31.857777z m0 742.058666c-89.998222 0-174.535111-35.043556-238.250667-98.645333S175.104 462.620444 175.104 372.622222s35.043556-174.535111 98.645333-238.250666 148.252444-98.645333 238.250667-98.645334 174.535111 35.043556 238.250667 98.645334 98.645333 148.252444 98.645333 238.250666-35.043556 174.535111-98.645333 238.250667-148.252444 98.645333-238.250667 98.645333zM489.244444 315.733333c-18.887111 0-34.133333 15.246222-34.133333 34.133334V571.619556c0 18.887111 15.246222 34.133333 34.133333 34.133333s34.133333-15.246222 34.133334-34.133333V349.866667c0-18.887111-15.246222-34.133333-34.133334-34.133334zM665.486222 315.733333H489.244444c-18.887111 0-34.133333 15.246222-34.133333 34.133334s15.246222 34.133333 34.133333 34.133333h176.241778c18.887111 0 34.133333-15.246222 34.133334-34.133333s-15.246222-34.133333-34.133334-34.133334z"  horiz-adv-x="1024" />
      
      <glyph glyph-name="word" unicode="&#59138;" d="M791.94 740.64H332.48c-42.23 0-76.54-34.31-76.54-76.54v-76.55h-51.03c-28.16 0-51.04-22.87-51.04-51.03v-306.37c0-28.15 22.88-51.02 51.04-51.02h51.03v-76.54c0-42.24 34.32-76.55 76.54-76.55h459.46c42.23 0 76.54 34.32 76.54 76.54V664.1c0.1 42.24-34.31 76.54-76.54 76.54z m-547.68-298.6h40.28l26.04-93.58h5.7l29.16 93.58h34.45l29.02-93.71h6.24l26.18 93.71h40.41l-40.41-133.72H384.1l-19.53 70.25h-5.43l-19.26-69.98h-55.74l-39.88 133.45zM817.45 102.5c-0.01-14.09-11.42-25.5-25.51-25.51H332.48c-14.09 0.01-25.5 11.43-25.51 25.51v76.54h204.21c28.15 0 51.03 22.88 51.03 51.03V281.1H740.9c14.09 0.01 25.51 11.43 25.52 25.52-0.02 14.09-11.43 25.5-25.52 25.51H562.21v51.03H740.9c14.09 0.01 25.51 11.43 25.52 25.52-0.01 14.09-11.43 25.5-25.52 25.52H562.21v51.03H740.9c14.09 0.01 25.51 11.43 25.52 25.51-0.01 14.09-11.43 25.51-25.52 25.52H562.21c0 28.16-22.89 51.03-51.03 51.03H306.97v76.54c0.01 14.09 11.43 25.5 25.51 25.52h459.46c14.08-0.01 25.5-11.43 25.51-25.52V102.5z m0 0"  horiz-adv-x="1024" />
      
      <glyph glyph-name="icon-shangji" unicode="&#59140;" d="M746.30031 803.956558l-77.7068-77.759305A392.235575 392.235575 0 0 1 498.793651 764.578111C281.319619 764.578111 105.00919 588.267682 105.00919 370.793651c0-217.474032 176.310429-393.784461 393.784461-393.784461 217.474032 0 393.784461 176.310429 393.78446 393.784461 0 60.800321-13.782456 118.371609-38.380858 169.773607l77.733052 77.733052A496.509701 496.509701 0 0 0 997.587301 370.793651c0-275.465357-223.328294-498.793651-498.79365-498.793651S0 95.328294 0 370.793651 223.328294 869.587301 498.793651 869.587301c90.071632 0 174.577778-23.889591 247.506659-65.630743z m-158.38011-158.406363L496.929737 554.559732a183.766082 183.766082 0 1 1 185.603743-185.629995l91.016715 90.990463c9.109547-28.089958 14.018727-58.017577 14.018727-89.126549 0-159.482707-129.292565-288.775271-288.775271-288.775272S210.018379 211.310944 210.018379 370.793651 339.310944 659.568922 498.793651 659.568922c31.108972 0 61.062844-4.90918 89.126549-14.018727z m235.141828 123.779582c-6.300551 7.271886-8.531997 11.839786-10.133387 17.090246a35.781881 35.781881 0 0 0 0 21.054342c2.100184 6.956859 5.329216 12.758617 17.746553 25.175954L870.657443 872.632568c12.417337 12.417337 18.219094 15.620117 25.175953 17.746553 6.956859 2.100184 14.071231 2.100184 21.054343 0 5.250459-1.60139 9.818359-3.806583 17.063993-10.133387l0.262523 0.262523a52.504595 52.504595 0 0 0 74.241497-74.294002l-0.23627-0.210018c6.300551-7.245634 8.531997-11.839786 10.107134-17.090246 2.100184-6.956859 2.100184-14.097484 0-21.054342s-5.302964-12.758617-17.720301-25.175954l-39.982249-39.982248c-12.417337-12.417337-18.219094-15.620117-25.202205-17.720301-6.930607-2.100184-14.071231-2.100184-21.02809 0-5.250459 1.575138-9.844612 3.806583-17.063994 10.107134L562.901761 360.712768a52.504595 52.504595 0 1 0-74.241497 74.26775L823.062028 769.303525z"  horiz-adv-x="1024" />
      
      <glyph glyph-name="wenxintishi" unicode="&#59136;" d="M513.550821 751.774337c-248.290923 0-449.579345-201.299679-449.579345-449.625394 0-248.296039 201.288422-449.594695 449.579345-449.594695 248.285806 0 449.640744 201.299679 449.640744 449.594695C963.192587 550.474658 761.836627 751.774337 513.550821 751.774337zM660.597875 475.635159c0 7.726985 9.203616 13.995759 20.550035 13.995759 11.356652 0 20.560268-6.268774 20.560268-13.995759l0-117.233028c0-7.726985-9.203616-13.995759-20.560268-13.995759-11.346419 0-20.550035 6.268774-20.550035 13.995759L660.597875 475.635159zM325.455885 475.635159c0 7.726985 9.204639 13.995759 20.551058 13.995759 11.354606 0 20.559245-6.268774 20.559245-13.995759l0-117.233028c0-7.726985-9.204639-13.995759-20.559245-13.995759-11.347442 0-20.551058 6.268774-20.551058 13.995759L325.455885 475.635159zM513.58152-14.159096c-173.034938 0-313.833685 137.580448-319.206042 309.314765l46.750767 0c8.267291-146.885372 126.996392-265.030166 272.455275-265.030166 145.453766 0 264.186961 118.144794 272.453229 265.030166l46.750767 0C827.412135 123.421352 686.610318-14.159096 513.58152-14.159096z"  horiz-adv-x="1024" />
      
      <glyph glyph-name="ai-app" unicode="&#59133;" d="M639.872 681.175v43.945h-41.942v-43.945h41.942zM426.070 681.175v43.945h-41.942v-43.945h41.942zM661.866 803.080q105.878-75.913 105.878-205.789h-511.489q0 131.879 103.917 205.789l-55.965 55.965q-15.984 15.984 0 29.965t29.965 0l63.936-63.936q51.959 27.961 113.891 27.961 59.929 0 111.888-27.961l63.936 63.936q15.984 13.981 29.965 0t0-29.965zM873.622 553.303q25.958 0 44.968-18.968t18.968-44.968v-297.686q0-27.961-18.968-45.949t-44.968-17.987-44.968 17.987-18.968 45.949v297.686q0 25.958 18.968 44.968t44.968 18.968zM150.378 553.303q25.958 0 44.968-18.968t18.968-44.968v-297.686q0-27.961-18.968-45.949t-44.968-17.987-44.968 17.987-18.968 45.949v297.686q0 25.958 18.968 44.968t44.968 18.968zM256.256 127.744v425.558h511.489v-425.558q0-17.987-11.977-29.965t-29.965-11.977h-43.945v-149.866q0-27.961-18.968-45.949t-44.968-17.987-44.968 17.987-18.968 45.949v149.866h-83.927v-149.866q0-27.961-18.968-45.949t-44.968-17.987-44.968 17.987-18.968 45.949v149.866h-43.945q-17.987 0-29.965 11.977t-11.977 29.965z"  horiz-adv-x="1024" />
      
      <glyph glyph-name="ios1" unicode="&#59135;" d="M521.996 659.402c13.596 0.316 26.587 2.344 38.944 5.874l1.477-1.023c25.485 8.525 47.394 21.707 65.751 38.675l-25.33-22.506c28.822 15.94 52.712 37.447 70.922 63.249l-36.429-39.535c28.139 24 50.335 54.116 64.645 88.349l-34.464-58.168c22.406 27.513 39.057 60.636 47.571 96.894l-25.474-60.785c14.141 25.287 23.872 54.935 27.305 86.475l-11.137-47.132c6.314 18.235 10.235 39.273 10.832 61.141-0.92-14.951-0.492-7.646-0.492-0.24 0 7.406-0.428 14.711-1.261 21.894-114.436-13.762-202.632-110.063-202.632-226.963 0-1.99 0.026-3.974 0.076-5.952zM813.027 279.983c-9.291 23.371-14.678 50.452-14.678 78.791 0 2.616 0.046 5.222 0.137 7.816 0.877 22.699 5.309 44.464 12.755 64.776 8.765 26.429 27.096 55.391 50.856 78.871 1.828 9.48 42.301 41.542 89.752 59.323-84.33 32.038-144.712 69.372-214.043 76.759 0.404 0.843-15.633 2.529-32.046 2.637l-53.878-0.333-15.629-4.312-11.857-3.773-15.091-5.389-10.779-8.623-17.785-7.006-14.552-5.928-10.24-3.773-12.396-3.773h-7.006c-2.507-0.304-5.41-0.478-8.354-0.478s-5.847 0.174-8.699 0.511c-2.079-0.302-4.891-0.455-7.739-0.455-2.848 0-5.659 0.153-8.427 0.452l-5.585-0.030-11.857 3.234-8.623 3.234-12.396 3.234-20.48 8.084-8.084 2.695-14.552 5.389-9.701 3.234-13.474 4.312h-10.24l-14.013 2.695h-10.779l-12.935 3.773c-35.215-0.199-68.68-7.463-99.123-20.442-100.455-45.409-170.936-147.27-170.936-265.593 0-6.498 0.213-12.947 0.631-19.339l-0.046-53.025c0-4.312 0-19.402 3.773-29.103s0-10.779 3.234-16.168 3.234-17.246 5.389-25.869 3.234-11.318 4.851-16.707 4.312-16.168 7.006-24.253 4.312-11.857 6.467-17.785l8.084-22.636 7.545-17.246c3.234-7.006 5.928-14.552 9.162-21.558l8.084-16.168 10.779-21.019 9.162-15.629 11.318-19.402 21.558-32.337 10.24-13.474 12.396-15.629 10.779-12.396 12.396-13.474 11.318-10.779 12.396-11.318 11.318-8.623 12.396-9.162 11.318-6.467 11.857-6.467 10.779-3.773 11.857-3.773 14.013-4.312h12.396c17.291 0.666 33.606 3.944 48.855 9.45 35.686 19.327 84.485 32.203 136.187 33.26-11.243-0.381-6.541-0.215-1.8-0.215 4.741 0 9.443-0.166 14.101-0.492l7.996 0.035 14.552-3.234 9.162-2.695 11.318-3.773 9.701-3.773 14.013-5.928 12.396-5.389 8.084-2.695 10.779-3.773h45.811c39.742 3.516 74.688 21.631 99.914 48.874 71.609 68.094 126.848 162.124 151.674 267.874-5.067-48.749 17.64 18.78 26.966 90.511-106.339-115.262-156.75-58.206-177.238 11.642z"  horiz-adv-x="1024" />
      
      <glyph glyph-name="xiazaicopyx" unicode="&#59132;" d="M977.428125-48.515397H39.742302a39.669647 39.669647 0 1 1 0-79.484603h937.685823a39.669647 39.669647 0 1 1 0 79.484603zM485.626224 20.506882a25.429261 25.429261 0 0 1 7.047538-6.393642l0.43593-0.29062 0.363275-0.145311a29.933873 29.933873 0 0 1 30.224493 0l0.363275 0.145311 0.43593 0.29062a27.390947 27.390947 0 0 1 7.047538 6.320987l441.234 396.623812a22.95899 22.95899 0 0 1 0 34.874415 29.643252 29.643252 0 0 1-38.797786 0L536.339435 94.615013V783.820633c0 13.804456-12.351355 24.99333-27.754221 24.99333-15.330211 0-27.754222-11.188875-27.754222-24.99333v-689.20562L83.19001 451.932454a29.643252 29.643252 0 0 1-38.797786 0 22.95899 22.95899 0 0 1 0-34.874415l441.234-396.623812z"  horiz-adv-x="1024" />
      
      <glyph glyph-name="guanlianwenzhang" unicode="&#59131;" d="M815.084675 494.669459h-10.722448v-325.75821h-204.237123a41.86861 41.86861 0 0 1-43.400388-39.315646v-180.239261H144.676321a20.934305 20.934305 0 0 0-21.955491 19.402527V746.391712a20.934305 20.934305 0 0 0 21.955491 19.402527h389.582311A426.344993 426.344993 0 0 0 671.097504 844.936124H144.676321A102.118561 102.118561 0 0 1 35.40946 746.391712v-776.611658a102.118561 102.118561 0 0 1 109.266861-97.523226h426.344993a27.061419 27.061419 0 0 1 17.360155 8.169485l293.590864 261.423517a23.997862 23.997862 0 0 1 9.701263 15.317784V538.58044l-19.402526-18.891934a82.716035 82.716035 0 0 0-57.186395-25.019047zM804.362227 130.106195l-200.152381-177.686296h-3.063556V130.106195h204.237122zM264.66563 400.20979v-38.805053a10.211856 10.211856 0 0 1 10.722449-9.701264H648.120828a10.211856 10.211856 0 0 1 11.233042 9.701264v38.805053a10.722449 10.722449 0 0 1-11.233042 9.701263H275.388079a10.722449 10.722449 0 0 1-10.722449-9.701263zM264.66563 640.699002v-38.805054a10.722449 10.722449 0 0 1 10.722449-9.701263h144.497764a347.713701 347.713701 0 0 0 20.934305 51.059281c0 2.552964 0 5.105928 3.57415 7.148299H275.388079a10.211856 10.211856 0 0 1-10.722449-9.701263zM659.864462 482.925824v38.805054a10.211856 10.211856 0 0 1-11.743634 9.701263h-20.423712a663.770648 663.770648 0 0 1-75.567736-58.20758H648.120828a10.211856 10.211856 0 0 1 11.743634 9.701263zM275.388079 473.224561h123.052867a366.095042 366.095042 0 0 0 5.61652 58.20758H275.388079a10.211856 10.211856 0 0 1-10.722449-9.701263v-38.805054a10.211856 10.211856 0 0 1 10.722449-9.701263zM980.516745 742.817563L823.764753 891.400069c-8.169485 7.658892-14.807191 5.616521-14.807191-5.105928V814.300556a159.815548 159.815548 0 0 1-25.529641 0C455.62734 758.64594 464.307418 472.713968 464.307418 472.713968s153.177842 174.112147 319.120503 174.112147h25.529641v-83.73722c0-10.722449 6.637706-13.275413 14.807191-5.105928l156.751992 153.177842a19.913119 19.913119 0 0 1 0 31.656754z"  horiz-adv-x="1024" />
      
      <glyph glyph-name="iconfontwodea-copy" unicode="&#59127;" d="M512 864c-265.101 0-480-214.899-480-480s214.899-480 480-480c265.101 0 480 214.899 480 480 0.134 265.101-214.765 480-480 480v0 0zM222.201 64.268c45.1 116.51 157.315 199.732 289.799 199.732s244.698-83.087 289.933-199.597c-76.778-69.665-178.255-112.349-289.933-112.349-111.678-0.134-213.155 42.684-289.799 112.215v0 0zM367.973 455.947c0 79.597 64.43 144.027 144.027 144.027s144.027-64.43 144.027-144.027c0-79.597-64.43-144.027-144.027-144.027s-144.027 64.564-144.027 144.027v0 0zM838.174 101.182c-42.416 92.618-122.014 164.295-220.537 194.631 51.946 34.228 86.443 93.155 86.443 160.134 0 106.041-86.040 192.081-192.081 192.081-106.041 0-192.081-86.040-192.081-192.081 0-66.98 34.362-125.906 86.443-160.268-98.524-30.336-178.121-102.013-220.537-194.631-65.906 75.839-105.906 174.497-105.906 282.818 0 238.657 193.423 432.081 432.081 432.081 238.658 0 432.081-193.423 432.081-432.081 0-108.188-40.134-206.845-105.906-282.684v0 0zM838.174 101.182z"  horiz-adv-x="1025" />
      
      <glyph glyph-name="wenhao" unicode="&#59128;" d="M511.9984 895.9904a501.814277 501.814277 0 0 1-199.484135-39.999225 513.782045 513.782045 0 0 1-163.004842-109.437879A513.782045 513.782045 0 0 1 40.007545 583.420456 501.814277 501.814277 0 0 1 0.00832 384.00032c0-70.654631 13.311742-137.149343 39.999225-199.484135a513.782045 513.782045 0 0 1 109.43788-163.004842 513.782045 513.782045 0 0 1 163.06884-109.501878A501.814277 501.814277 0 0 1 511.9984-127.98976a501.814277 501.814277 0 0 1 199.484135 39.999225 513.782045 513.782045 0 0 1 163.004842 109.437879 513.782045 513.782045 0 0 1 109.501878 163.068841A501.814277 501.814277 0 0 1 1023.98848 384.00032a501.814277 501.814277 0 0 1-39.999225 199.484135 513.782045 513.782045 0 0 1-109.437879 163.004842A513.782045 513.782045 0 0 1 711.418536 855.991175 501.814277 501.814277 0 0 1 511.9984 895.9904z m31.99938-831.98388H455.999485v87.998295H543.99778V64.00652z m60.990819 273.978692a139.517297 139.517297 0 0 1-38.015264-27.007477 60.286832 60.286832 0 0 1-15.99969-28.991438c0-1.279975-0.127998-2.623949-0.447991-3.967924a16.447681 16.447681 0 0 1-0.51199-4.031921c-1.343974-6.015883-2.367954-12.287762-3.007942-19.007632l-1.983962-20.991594v-19.007631l-91.006236 1.02398c0 2.687948-0.191996 6.143881-0.51199 10.495797a61.822802 61.822802 0 0 0 0.51199 13.503738l1.983961 24.511525c0.639988 8.319839 1.663968 16.51168 3.007942 24.511525a31.423391 31.423391 0 0 1 1.983961 9.983807c5.311897 25.343509 16.51168 47.807074 33.535351 67.518692A227.067601 227.067601 0 0 0 561.917433 417.919663c14.015728 7.359857 27.007477 22.20757 39.039244 44.543137 11.967768 22.335567 17.919653 40.127223 17.919652 53.438964a105.853949 105.853949 0 0 1-17.919652 58.046876 82.5584 82.5584 0 0 1-35.519312 28.991438c-14.97571 6.655871-34.815325 9.983807-59.518847 9.983807-22.655561 0-42.30318-4.479913-59.006857-13.43974-16.639678-9.023825-30.9754-21.887576-42.943168-38.527254a113.725797 113.725797 0 0 1-12.031767-19.007631 263.802889 263.802889 0 0 1-8.959826-20.031612 23.039554 23.039554 0 0 1-3.07194-6.463875 32.959361 32.959361 0 0 0-1.919963-5.503893v-4.031922L288.00274 526.077567c0 1.279975 0.319994 2.623949 1.02398 3.967923a11.135784 11.135784 0 0 1 0.959982 4.991904 172.796652 172.796652 0 0 1 3.519931 9.535815l3.519932 10.495797c3.967923 9.983807 8.639833 19.839616 13.95173 29.439429 5.375896 9.727812 11.327781 19.519622 18.04765 29.567427 19.967613 27.327471 44.799132 49.151048 74.494557 65.470732C433.151928 695.802279 467.327266 703.99412 505.982517 703.99412c39.359237 0 73.150583-6.847867 101.502033-20.479603 28.351451-13.695735 51.199008-32.831364 68.478673-57.534885 12.671754-16.639678 21.69558-34.623329 27.007477-53.950955 5.375896-19.391624 7.999845-38.015263 7.999845-55.998915 0-29.375431-10.111804-62.526789-30.46341-99.518072-20.351606-36.991283-45.503118-63.166776-75.518536-78.526478z"  horiz-adv-x="1024" />
      
      <glyph glyph-name="yanzhengma1" unicode="&#59129;" d="M826.4 658.9H198.5c-31.5 0-57.1-25.6-57.1-57.1v-171.2h57V601.8h628v-171.3h57.1V601.8c0 31.5-25.6 57.1-57.1 57.1z m0-513.8h-628V316.4h-57.1v-171.2c0-31.5 25.6-57.1 57.1-57.1h627.9c31.5 0 57.1 25.6 57.1 57.1V316.4h-57v-171.3zM246.95 360.398a57.1 57.1 0 1 1 111.143 26.245 57.1 57.1 0 1 1-111.144-26.245zM456.052 364.36a57.1 57.1 0 1 1 112.727 18.285 57.1 57.1 0 1 1-112.727-18.284zM665.955 364.364a57.1 57.1 0 1 1 112.727 18.284 57.1 57.1 0 1 1-112.727-18.284z"  horiz-adv-x="1024" />
      
      <glyph glyph-name="yanzhengma2" unicode="&#59171;" d="M204.8 307.2a51.2 51.2 0 1 0 0 102.4 51.2 51.2 0 0 0 0-102.4z m307.2 0a51.2 51.2 0 1 0 0 102.4 51.2 51.2 0 0 0 0-102.4z m307.2 0a51.2 51.2 0 1 0 0 102.4 51.2 51.2 0 0 0 0-102.4zM25.6 230.4a25.6 25.6 0 0 0 51.2 0v-153.6a76.8 76.8 0 0 1 76.8-76.8h716.8a76.8 76.8 0 0 1 76.8 76.8v155.904a25.6 25.6 0 0 0 51.2 0V76.8a128 128 0 0 0-128-128H153.6a128 128 0 0 0-128 128v153.6z m0 281.6V665.6a128 128 0 0 0 128 128h716.8a128 128 0 0 0 128-128v-155.904a25.6 25.6 0 0 0-51.2 0V665.6a76.8 76.8 0 0 1-76.8 76.8H153.6a76.8 76.8 0 0 1-76.8-76.8v-153.6a25.6 25.6 0 0 0-51.2 0z"  horiz-adv-x="1024" />
      
      <glyph glyph-name="mima" unicode="&#59130;" d="M150.576762 474.453333v-507.806476c0-9.508571 7.728762-17.212952 17.212952-17.212952h688.420572c9.508571 0 17.212952 7.728762 17.212952 17.212952V474.453333H150.576762zM121.904762 531.772952h780.190476c15.847619 0 28.672-12.848762 28.672-28.672v-536.478476c0-41.179429-33.377524-74.556952-74.556952-74.556952H167.789714a74.581333 74.581333 0 0 0-74.556952 74.556952V503.125333c0 15.847619 12.824381 28.672 28.672 28.672zM332.629333 517.290667a28.672 28.672 0 1 0-57.368381 0v118.174476C275.260952 768.146286 381.147429 875.910095 512 875.910095c130.852571 0 236.739048-107.76381 236.739048-240.444952v-126.366476a28.672 28.672 0 1 0-57.368381 0v126.366476c0 101.229714-80.432762 183.100952-179.370667 183.100952s-179.370667-81.871238-179.370667-183.100952v-118.174476zM512 183.247238c-59.050667 0-106.691048 48.518095-106.691048 108.105143s47.640381 108.105143 106.691048 108.105143c59.050667 0 106.691048-48.518095 106.691048-108.105143S571.050667 183.247238 512 183.247238z m0 57.368381c27.136 0 49.347048 22.601143 49.347048 50.736762s-22.211048 50.712381-49.347048 50.712381-49.347048-22.576762-49.347048-50.712381 22.211048-50.712381 49.347048-50.712381zM483.328 198.704762h57.344v-134.436572h-57.344z"  horiz-adv-x="1024" />
      
      <glyph glyph-name="yanzhengma" unicode="&#59126;" d="M511.94-63.54c-133.93 0-383.11 200.65-383.11 390.43V689.13c0 8.79 7.32 15.89 16.39 16.07l21.7 0.37c0.83 0 85.91 1.72 173.62 36.63 90.01 35.71 148.03 76.89 148.65 77.31l12.78 9.11c2.91 2.05 6.37 3.15 9.92 3.15 3.52 0.02 6.97-1.06 9.85-3.1l13.03-9.19c0.59-0.42 58.66-41.56 148.57-77.31 87.8-34.91 172.88-36.63 173.75-36.63l21.53-0.37c9.08-0.18 16.38-7.28 16.38-16.07l0.18-362.24c0-189.76-249.22-390.43-383.27-390.43l0.03 0.03z m324.13 710.49c-32.93 2.49-102.22 11.04-174.21 39.68-73.55 29.22-127.63 62.08-149.93 76.6-22.23-14.46-76.34-47.33-149.87-76.6-71.85-28.58-140.95-37.13-174.33-39.68v-320.06c0-148.83 217.1-330.76 324.21-330.76 41.51 0 122.41 33.86 201.93 108.22 76.65 71.62 122.41 154.83 122.41 222.52l-0.21 320.08zM481.21 266.02a28.907 28.907 0 0 0-20.79-8.79c-7.85 0-15.36 3.16-20.88 8.78l-88.44 89.48c-11.49 11.7-11.49 30.51 0 42.21 11.36 11.57 29.9 11.7 41.41 0.29 0.1-0.09 0.19-0.19 0.28-0.29l67.62-68.36L631.14 502.2c11.31 11.57 29.81 11.73 41.32 0.36 0.12-0.12 0.24-0.24 0.35-0.36 11.57-11.67 11.57-30.54 0-42.21l-191.6-193.97z"  horiz-adv-x="1024" />
      
      <glyph glyph-name="filter" unicode="&#59123;" d="M641.19466663 420.86400003H381.09866663c-14.336 0-26.112 11.776-26.112 26.112 0 6.656 2.56 12.8 6.656 17.408L490.66666663 635.90400003c8.704 11.264 24.576 13.824 36.352 5.12 2.048-1.536 3.584-3.072 5.12-5.12l130.048-173.568c8.704-11.264 6.144-27.648-5.12-36.352-5.12-3.584-10.24-5.12-15.872-5.12zM381.09866663 360.44800003h260.096c14.336 0 26.112-11.776 26.112-26.112 0-6.656-2.56-12.8-6.656-17.408L531.62666663 145.40800003000004c-8.704-11.264-24.576-13.824-36.352-5.12-2.048 1.536-3.584 3.072-5.12 5.12L360.61866663 318.97600003c-8.704 11.264-6.144 27.648 5.12 36.352 4.608 3.072 9.728 5.12 15.36 5.12z"  horiz-adv-x="1024" />
      
      <glyph glyph-name="zhishu" unicode="&#59124;" d="M801.391304-16.695651999999995a44.521739 44.521739 0 0 0 5.209044-88.731826L801.391304-105.73913000000005H267.130435a44.521739 44.521739 0 0 0-5.209044 88.731826L267.130435-16.695651999999995h534.260869zM934.956522 896a133.565217 133.565217 0 0 0 133.342608-125.729391L1068.521739 762.434783v-534.26087a133.565217 133.565217 0 0 0-125.729391-133.342609L934.956522 94.60869600000001H133.565217a133.565217 133.565217 0 0 0-133.342608 125.729391L0 228.17391299999997V762.434783A133.565217 133.565217 0 0 0 125.729391 895.777391L133.565217 896h801.391305z m-116.335305-231.958261l-4.185043-3.695304-132.719304-132.674783a44.521739 44.521739 0 0 0-46.169044-10.551652l-5.209043 2.226087-120.653913 60.326956a44.521739 44.521739 0 0 1-52.090435-9.082434l-3.472696-4.006957-83.033043-110.725565a44.521739 44.521739 0 0 0-55.652174-13.04487l-4.630261 2.671305-63.488 42.340174-4.496696 2.671304a44.521739 44.521739 0 0 1-49.062956-73.638957l4.140521-3.116521 133.565218-89.043479a44.521739 44.521739 0 0 1 56.854261 6.233044L391.791304 335.02608699999996l88.954435 118.605913a44.521739 44.521739 0 0 0 50.665739 15.226435l4.897392-2.092522 111.616-55.830261a44.521739 44.521739 0 0 1 47.104 4.585739l4.274087 3.784348 178.086956 178.086957 3.695304 4.185043a44.521739 44.521739 0 0 1-62.464 62.464z"  horiz-adv-x="1068" />
      
      <glyph glyph-name="jiqiren" unicode="&#59392;" d="M973.645568 238.848a27.456 27.456 0 0 1-14.8224-28.928l9.1648-96.384a143.2832 143.2832 0 0 0-24.9984-120.192A145.5616 145.5616 0 0 0 833.728768-64h-643.2a145.5872 145.5872 0 0 0-109.184 57.472 143.1552 143.1552 0 0 0-25.0624 120.064l9.4336 96.384a28.6976 28.6976 0 0 1-14.8224 28.928 86.3744 86.3744 0 0 0 35.0464 165.12 30.72 30.72 0 0 1 26.688 18.688c21.5552 46.336 76.288 158.08 123.456 203.264a20.928 20.928 0 0 1 6.4 15.104 21.3632 21.3632 0 0 1-6.4 15.104l-70.4 70.784a53.76 53.76 0 0 0-60.3776 11.264 55.2192 55.2192 0 0 0 0 77.696 54.1312 54.1312 0 0 0 77.0944 0 54.7968 54.7968 0 0 0 11.0592-60.928l78.1696-78.592a20.736 20.736 0 0 1 26.688-2.688 380.8256 380.8256 0 0 0 427.2768 0 21.1072 21.1072 0 0 1 26.9568 2.688l78.1824 78.592a54.8224 54.8224 0 0 0 11.0464 60.928 54.144 54.144 0 0 0 77.1072 0 55.2448 55.2448 0 0 0 0-77.696 53.8368 53.8368 0 0 0-60.3904-11.264l-70.4-70.784a21.0304 21.0304 0 0 1-6.4-15.104 20.5952 20.5952 0 0 1 6.4-15.104c47.1808-45.184 101.9008-156.928 123.4688-203.264a30.72 30.72 0 0 1 26.688-18.688 85.5296 85.5296 0 0 0 84.1088-68.608 86.6944 86.6944 0 0 0-48.7936-96.512zM681.959168 484.736H342.298368c-82.752 0-150.144-56.704-150.144-126.208s67.1232-126.464 150.144-126.464h339.6608c83.0336 0 150.1568 56.704 150.1568 126.464s-67.1232 126.208-150.1568 126.208zM640.179968 295.424a63.1168 63.1168 0 1 0 64.4224 63.104 62.4896 62.4896 0 0 0-18.9312-44.8 64.1024 64.1024 0 0 0-45.4912-18.304z m-256.1024 0a63.104 63.104 0 1 0 64.1664 63.104 63.3984 63.3984 0 0 0-64.1664-63.104z m0 0"  horiz-adv-x="1024" />
      
      <glyph glyph-name="gengduo" unicode="&#59116;" d="M354.555346 418.680825H62.207184A62.207184 62.207184 0 0 0 0 480.888008V773.236171C0 807.60372 27.839635 835.443355 62.207184 835.443355H354.555346c34.367549 0 62.271183-27.839635 62.271183-62.207184v-292.348163a62.207184 62.207184 0 0 0-62.271183-62.207183M354.555346-100.352363H62.207184A62.207184 62.207184 0 0 0 0-38.08118v292.284164c0 34.367549 27.839635 62.271183 62.207184 62.271182H354.555346c34.367549 0 62.271183-27.903634 62.271183-62.271182v-292.284164a62.207184 62.207184 0 0 0-62.271183-62.271183M1013.938692 583.030668l-206.717287-206.717287a62.207184 62.207184 0 0 0-87.998845 0l-206.717287 206.717287a62.207184 62.207184 0 0 0 0 87.998845l206.717287 206.717287a62.143184 62.143184 0 0 0 87.934846 0l206.717287-206.717287c24.319681-24.319681 24.319681-63.679164 0-87.998845M909.428064-100.352363H616.951903a62.207184 62.207184 0 0 0-62.207184 62.271183v292.284164c0 34.367549 27.839635 62.271183 62.207184 62.271182h292.348162c34.367549 0 62.207184-27.903634 62.207184-62.271182v-292.284164a62.207184 62.207184 0 0 0-62.207184-62.271183"  horiz-adv-x="1087" />
      
      <glyph glyph-name="shewaifuwucopy" unicode="&#59121;" d="M691.68 122.24c-21.12-46.72-49.28-93.024-82.88-138.944a1000.48 1000.48 0 0 0-61.12-75.264 446.56 446.56 0 0 1 297.76 149.28 662.304 662.304 0 0 1-58.528 30.592c-32 14.496-63.872 25.856-95.232 34.368M713.664 543.136c15.968-46.336 27.584-97.184 30.72-152.48 0.224-4.032 0.192-8.032 0.32-12.064h212.864a444.768 444.768 0 0 1-82.304 235.168c-19.008-11.296-37.984-21.6-56.96-30.624a678.144 678.144 0 0 0-104.64-40M662.432 178.464c18.976 50.496 30.752 101.216 33.888 152.128H324.448c3.232-52.64 15.52-105.056 35.68-157.248 86.976 19.2 191.232 27.52 302.304 5.12M696.16 588.16a630.24 630.24 0 0 1 90.24 32.736 653.504 653.504 0 0 1 58.528 30.592C771.52 733.824 668.672 789.152 552.768 800a722.688 722.688 0 0 0 65.568-77.504 698.56 698.56 0 0 0 77.824-134.336M696.48 387.456a511.424 511.424 0 0 1-29.76 144.032c-48.256-10.048-95.232-14.4-140.128-14.4-61.6 0-119.136 8.064-170.56 19.712a513.952 513.952 0 0 1-31.744-149.344c-0.16-2.976 0.16-5.92 0-8.896h372.16c-0.096 2.976 0.192 5.92 0 8.896M379.616 128.864c25.376-52.8 59.36-105.28 101.856-157.216 9.376-11.456 18.656-22.912 28.896-34.304 10.24 11.36 19.456 22.816 28.8 34.24 43.776 53.504 78.56 107.52 104.128 161.92-96.288 17.984-186.848 11.392-263.68-4.64M326.848 593.376a699.392 699.392 0 0 0 75.328 128.832A723.68 723.68 0 0 0 467.936 800c-115.328-11.04-217.696-66.144-290.816-147.968 15.296-7.936 36.096-17.728 60.992-27.936 25.472-10.432 55.008-21.216 88.736-30.688M331.392 117.216c-35.904-9.92-67.2-21.28-93.984-32.32-24.8-10.24-45.696-20.096-60.896-27.968a446.72 446.72 0 0 1 296.48-148.864 1008.544 1008.544 0 0 0-61.376 75.52c-32.256 44.16-59.456 88.704-80.224 133.632M648.32 576.8c-31.2 68.544-71.36 122.88-102.784 159.552-13.888 16.16-26.24 29.248-35.2 38.08-8.864-8.864-21.28-21.952-35.2-38.144-30.752-35.808-69.76-88.416-100.608-154.72 79.264-17.024 173.568-24.224 273.792-4.768M276.064 378.56c0.128 4.064 0.096 8.064 0.32 12.096 3.264 57.6 15.68 110.4 32.736 158.208a876 876 0 0 0-162.56 65.12 444.608 444.608 0 0 1-82.496-235.392h212zM312.736 161.44A568 568 0 0 0 276.48 330.56H64a444.8 444.8 0 0 1 82.048-235.616c14.4 7.68 34.016 17.472 58.752 28.16 29.76 12.8 66.048 26.56 107.936 38.336M893.632 330.56H744.32a565.792 565.792 0 0 0-34.144-163.584c35.776-10.048 72.128-23.84 108.608-41.216 18.944-9.088 37.92-19.328 56.896-30.624a444.832 444.832 0 0 1 81.92 235.456h-64z"  horiz-adv-x="1024" />
      
      <glyph glyph-name="zhunyingzhunban1" unicode="&#59522;" d="M62.717288 14.459288h898.566447v-134.78246H62.717288zM1014.04939 125.520534c0-22.843219-18.660975-41.563545-41.534892-41.563545H51.485502c-22.873918 0-41.534892 18.720326-41.534892 41.563545v83.274445c0 108.106967 88.393013 196.542959 196.498956 196.542959h611.040493c108.107991 0 196.558308-88.553672 196.558308-196.542959v-83.274445zM512.007163 888.323172c100.150777 0 181.406244-81.211464 181.406244-181.391917 0-30.844434-7.721853-59.932878-21.293936-85.35073-40.130919-71.603662-38.375952-209.369053-28.431483-224.740104H382.884598c16.321701 102.9884-19.714978 198.620266-32.817364 228.29404-12.460775 24.555206-19.480641 52.371683-19.480641 81.796794-0.001023 100.180453 81.196115 181.391917 181.42057 181.391917z"  horiz-adv-x="1024" />
      
      <glyph glyph-name="touzi" unicode="&#59117;" d="M554.014654 699.431442c0-8.360059 0-27.223781 29.581745-34.940757V734.15784c-29.581746-7.502617-29.581746-26.580699-29.581745-34.726398zM643.617333 597.181495v-69.881516c29.581746 7.716977 29.581746 26.580699 29.581746 34.940758s0.643081 27.223781-29.581746 34.940758zM613.821227 896A265.378271 265.378271 0 1 1 879.413858 630.83609 265.592631 265.592631 0 0 1 613.821227 896z m80.8139-255.517689a89.60268 89.60268 0 0 0 40.085409-78.241574 90.0314 90.0314 0 0 0-40.085409-78.455935 125.61524 125.61524 0 0 0-50.374713-18.435001v-29.796106H583.596399v29.796106a125.61524 125.61524 0 0 0-50.374712 18.435001A90.0314 90.0314 0 0 0 493.564999 562.240737h60.878376c0-8.360059 0-27.223781 29.581745-34.940758v75.240528a122.614193 122.614193 0 0 0-50.374712 18.435001A90.0314 90.0314 0 0 0 493.564999 699.431442a89.60268 89.60268 0 0 0 40.085409 78.241575 122.614193 122.614193 0 0 0 50.374712 18.435001v30.010466H643.617333v-30.010466a122.614193 122.614193 0 0 0 50.374712-18.435001 89.60268 89.60268 0 0 0 40.085409-78.241575h-60.235294c0 8.145698 0 27.223781-29.581746 34.726398v-75.240528a122.614193 122.614193 0 0 0 50.374713-18.435001zM0.535901 284.643919v-412.643919h150.052334V284.643919H0.535901zM1000.956249 187.538623l-253.159724-69.452795-215.64664 52.518317 14.362152 59.163492 200.427046-48.874189 0.428721 0.21436v78.027214l-280.169144 70.095876-255.732049-39.656688V-42.898891l147.694369 16.720118 286.599958-80.385179 377.703161 208.144023-22.50785 85.958552z"  horiz-adv-x="1024" />
      
      <glyph glyph-name="nonglinmuyu" unicode="&#59575;" d="M904.065683 797.760755s41.905328 83.82089 65.859856 0c0 0 149.689955-308.365543-104.783276-646.669897C744.113011-6.76711 495.837934-61.730823 324.824367 46.89189c-56.981668 36.194268-81.647392 78.003406-81.647391 78.003405s-36.068401-23.476644-77.232858-70.781948c-39.352185-45.227997-60.44146-123.143398-109.149714-121.087581-11.362769 0.477883-23.359987 4.054331-32.305712 14.384587-19.792749 22.863685-16.3524 49.789887-4.735852 74.436167 17.823912 37.801879 63.277036 118.436199 154.319383 193.915114C326.95898 342.481481 493.703322 378.636863 685.514522 382.93474c30.814758 0.692777 30.113795 51.719839-10.476588 52.898685 0 0-267.951169 24.373058-488.74439-142.537059-55.100835 193.253036 137.245553 350.495999 320.2942 368.641228 97.883135 9.707063 176.490291-13.614038 266.519567 23.613767 41.48475 17.151601 99.617636 45.375353 130.958372 112.209394z"  horiz-adv-x="1024" />
      
      <glyph glyph-name="shebao4" unicode="&#59118;" d="M447.118611 68.416597a240.132314 240.132314 0 0 1 70.523441-35.261721 758.4796 758.4796 0 0 1 590.633812 22.920119 536.68338 536.68338 0 0 1 213.686024 179.129538 271.867862 271.867862 0 0 0 43.371915 49.013791 55.713518 55.713518 0 0 0 10.225899 7.757578c7.757578 4.231406 16.220391 11.28375 25.035822 4.584024s4.936641-16.925626 2.115703-25.388439a439.361033 439.361033 0 0 0-89.212152-152.330631 690.071863 690.071863 0 0 0-364.958803-216.859578 964.760663 964.760663 0 0 0-381.179195-19.393947 730.622841 730.622841 0 0 0-456.286659 234.137822 420.672321 420.672321 0 0 0-107.900863 222.854071 342.038685 342.038685 0 0 0 50.42426 225.322392 644.231627 644.231627 0 0 0 317.355481 266.578604A837.81847 837.81847 0 0 0 799.030578 889.309441 775.757843 775.757843 0 0 0 1198.898484 730.631701a687.603543 687.603543 0 0 0 199.581336-238.721846 84.980746 84.980746 0 0 0 11.988985-37.73004c0-21.157032-11.636368-28.561993-29.972462-17.63086a171.724577 171.724577 0 0 0-51.129494 52.89258 712.639364 712.639364 0 0 1-116.363676 125.179106 14.809922 14.809922 0 0 1-11.283751 5.289258c-7.052344-35.26172-14.457305-72.991761-21.509649-109.311332q-41.961447-211.570321-82.865043-423.140642c-1.763086-9.520664-5.641875-11.988985-14.457305-11.28375-46.898088 1.763086-94.148793 3.878789-141.04688 4.584024-13.399454 0-14.104688 5.641875-11.988985 16.925625 16.220391 85.68598 32.088165 171.724577 48.308556 257.763174q27.151525 141.046881 53.597815 284.914699c2.115703 11.636368 7.052344 14.457305 17.983477 14.104688h104.022075a226.380243 226.380243 0 0 1-49.719026 30.325079A700.297762 700.297762 0 0 1 846.281283 750.730881a779.636632 779.636632 0 0 1-418.909235-84.980745 413.619977 413.619977 0 0 1-156.562037-127.29481c-67.349885-95.206644-64.176331-195.34993-14.457306-296.903684A387.878921 387.878921 0 0 1 352.617201 124.482732c6.699727-5.641875 10.931133-6.699727 17.63086 2.115703a511.294942 511.294942 0 0 1 33.146017 52.89258c5.994492 9.520664 10.225899 9.873282 19.746564 4.936641a282.093761 282.093761 0 0 1 148.451841-38.787892 151.272779 151.272779 0 0 1 101.906372 40.198361 65.234182 65.234182 0 0 1 0 99.085433 728.154521 728.154521 0 0 1-93.090942 70.52344 229.906415 229.906415 0 0 0-79.691487 87.801684 121.652934 121.652934 0 0 0 56.418752 168.903639 312.066223 312.066223 0 0 0 130.468365 35.26172c99.085434 6.34711 198.523484 0 297.961535 2.820938 9.168047 0 12.694219 0 10.578516-12.341602-9.520664-46.192853-9.168047-45.487619-55.360901-47.95594s-85.68598 0-128.000044-5.994492a160.440827 160.440827 0 0 1-44.429767-12.694219 59.944924 59.944924 0 0 1-35.26172-84.628129A130.468364 130.468364 0 0 1 775.757843 428.086142c29.619845-23.97797 61.002776-46.545471 90.270003-70.52344a144.573053 144.573053 0 0 0 53.597815-147.041373 134.699771 134.699771 0 0 0-70.52344-88.859535 412.562126 412.562126 0 0 0-174.192898-49.013791c-70.52344-6.699727-141.046881-2.115703-211.57032-3.173555z"  horiz-adv-x="1411" />
      
      <glyph glyph-name="anquanshengchan1" unicode="&#59119;" d="M948.589714-116.736c-5.924571-6.948571-17.846857-10.313143-36.571428-10.313143l-297.252572-0.036571-118.893714 0.036571-118.930286-0.036571-297.216 0.036571c-20.114286 0-31.963429 2.852571-37.302857 9.069714-5.266286 6.070857-6.436571 17.590857-3.803428 36.352 7.241143 51.382857 16.64 104.338286 27.830857 157.330286 3.108571 14.592 11.995429 33.426286 36.717714 40.96 63.853714 19.382857 132.498286 40.448 202.130286 63.085714 11.629714 3.766857 15.177143 1.974857 20.626285-5.668571 38.985143-53.833143 99.949714-85.101714 167.387429-85.796571 67.291429-0.036571 128.365714 29.184 168.228571 81.846857 8.411429 11.227429 14.628571 13.019429 28.964572 8.228571 66.852571-22.125714 133.12-42.422857 194.742857-61.110857 23.478857-7.094857 35.730286-20.297143 39.570286-42.715429 3.876571-23.04 8.228571-46.006857 12.507428-68.937142 5.339429-28.818286 10.788571-57.6 15.506286-86.564572 2.779429-17.371429 1.462857-29.110857-4.242286-35.766857M206.116571 499.017143c78.518857-9.581714 178.980571-15.433143 289.645715-15.433143 110.738286 0 211.2 5.924571 289.828571 15.506286 0.987429 5.558857 2.048 12.288 2.742857 12.324571l0.731429 10.349714c1.828571 27.172571 3.547429 52.736-11.52 74.496-8.301714 12.178286-12.434286 22.016-14.08 33.974858-10.093714 72.521143-44.434286 134.107429-101.814857 183.04-2.706286 2.304-5.485714 4.717714-7.972572 6.619428l-1.974857-10.057143c-9.618286-50.102857-23.771429-115.163429-49.078857-178.761143l-20.077714 2.596572a84.48 84.48 0 0 0 0.804571 22.528c2.56 20.004571 5.668571 39.972571 8.777143 59.977143 6.619429 42.934857 13.531429 87.405714 15.36 131.474285 0.731429 18.432-5.12 26.733714-23.113143 33.024a266.386286 266.386286 0 0 1-135.68 10.898286c-66.230857-11.702857-67.364571-13.202286-61.586286-81.261714 0.548571-5.741714 1.243429-11.446857 2.084572-17.188572l22.308571-156.233142-19.968-5.595429C365.421714 691.382857 352.182857 753.444571 338.285714 819.163429c-62.537143-50.578286-98.486857-112.530286-109.714285-188.928-0.219429-1.536-0.329143-3.181714-0.475429-4.864-0.475429-6.656-1.097143-14.921143-6.875429-20.553143-18.102857-17.298286-18.102857-38.4-18.212571-62.902857 0-7.204571 0-14.409143-0.438857-21.467429-0.402286-6.290286 0.731429-7.68 0.731428-7.68 0.109714-0.109714 0.731429-7.570286 2.779429-13.750857m289.645714-62.208a2690.925714 2690.925714 0 0 0-242.541714 10.276571c-0.109714-0.804571 0.073143-1.426286-0.109714-2.194285l1.060571-7.314286c5.485714-39.424 10.605714-76.653714 41.142857-104.594286 5.376-4.900571 7.753143-11.776 9.581715-17.371428 20.260571-59.830857 59.611429-107.154286 120.283428-144.713143 44.434286-27.574857 89.088-29.915429 132.790857-6.765715 63.780571 33.755429 107.739429 83.273143 130.669715 147.236572l1.133714 3.474286c1.682286 5.339429 3.84 12.068571 9.069714 16.822857 33.389714 30.464 38.034286 71.862857 42.788572 115.675428-12.214857-1.170286-24.868571-2.194286-37.778286-3.218285-2.852571-0.365714-5.595429-0.548571-8.374857-0.548572a2847.232 2847.232 0 0 0-199.716572-6.765714m0 0a2690.925714 2690.925714 0 0 0-242.541714 10.276571c-0.109714-0.804571 0.073143-1.426286-0.109714-2.194285l1.060571-7.314286c5.485714-39.424 10.605714-76.653714 41.142857-104.594286 5.376-4.900571 7.753143-11.776 9.581715-17.371428 20.260571-59.830857 59.611429-107.154286 120.283428-144.713143 44.434286-27.574857 89.088-29.915429 132.790857-6.765715 63.780571 33.755429 107.739429 83.273143 130.669715 147.236572l1.133714 3.474286c1.682286 5.339429 3.84 12.068571 9.069714 16.822857 33.389714 30.464 38.034286 71.862857 42.788572 115.675428-12.214857-1.170286-24.868571-2.194286-37.778286-3.218285-2.852571-0.365714-5.595429-0.548571-8.374857-0.548572a2847.232 2847.232 0 0 0-199.716572-6.765714"  horiz-adv-x="1024" />
      
      <glyph glyph-name="jiuye5" unicode="&#59120;" d="M1053.644433 742.151503H781.259228V830.86686A66.322849 66.322849 0 0 1 713.996236 895.993163H430.329309a66.237381 66.237381 0 0 1-67.262992-65.126303V742.151503H90.595644A89.655501 89.655501 0 0 1 0 653.607081v-692.714806a89.655501 89.655501 0 0 1 90.595644-88.62989h963.048789a89.570033 89.570033 0 0 1 90.595644 88.62989V653.607081a89.655501 89.655501 0 0 1-90.595644 88.544422zM410.244426 830.86686a19.657545 19.657545 0 0 0 19.999415 19.315675h283.752395a19.743013 19.743013 0 0 0 19.999416-19.315675v-86.236797H410.244426z m713.056092-551.778752H712.628754v-17.777259a22.050638 22.050638 0 0 0-22.477975-21.708767H458.619081a21.96517 21.96517 0 0 0-22.307041 21.708767v17.777259H10.085175v40.597104H435.884702v17.691791a22.050638 22.050638 0 0 0 22.307041 21.708768h231.617165a22.050638 22.050638 0 0 0 22.477976-21.708768v-17.691791h410.757231v-40.597104z"  horiz-adv-x="1144" />
      
      <glyph glyph-name="jiaotong2" unicode="&#59122;" d="M403.6 790.1a697.2 697.2 0 0 0 215.8 0c50.4-10.5 100.7-18.9 147.9-32.6 35.1-9.3 63.2-37 74.4-73.1 20.4-60.1 41.8-119.8 64.4-179.1 4-10.1 16-24.7 23.1-23.7 39.9 7.1 77.9-20.5 85.5-62 2.5-10.8 2.5-21.9 0-32.6l-57.3-16.2c3.5-20.9 5.9-42 7-63.1v-291.1c-0.6-17.5-6.5-34.4-17.1-48.4-53-10.7-107.5-11.8-161-3.2-37.2 24.7-14.1 66.2-26.1 99.8h-489c-9.6-35.7-15.1-95.6-26.2-99.8-54.5-10-110.5-10-165 0a97.644 97.644 0 0 0-18.1 55.7c-3 42-3 81.9-3 122.9 0 76.2 0 152.4 3 229.2L8.7 387.6c-1.8 8.5-1.8 17.3 0 25.8 15.1 42.1 35.2 74.6 87 69.8 6 0 17.7 12.6 21.2 22.1 19.2 46.9 36 94.8 50.3 143.5 19.3 72 79.5 123.8 150.9 129.8 27.7 5.2 56.3 8.9 84 13.6l1.5-2.1zM181.4 465.4c216.7-48 441.2-48 657.9 0-18.6 58.4-37.2 110.4-50.3 163-8 41.2-43.1 70.6-83.5 69.8-104.1 4.8-208.7 8.4-312.8 9.5-34-1.4-67.8-6.8-100.6-16.2-15.3-3.4-28.6-12.9-36.8-26.3-28.1-63.7-49.3-129.4-73.9-199.8z m42.8-248.1c18-0.9 36 0.1 53.8 3.2 14.1 3.5 25.9 12.9 32.6 25.7 2.5 7.9-9 27.3-19.1 32.1-40.8 20-82.8 37.5-125.7 52.6-21.1 7.3-45.3 5.7-50.3-25.2-10.1-45.8 0-71 32.6-78.4 25.6-5.2 50.4-6.3 78.5-8.9l-2.4-1.1z m579.9 0c26.5 2 52.9 5.5 79 10.6 37.7 8.9 29.6 41 28.6 68.8-1 27.9-15.1 41-35.7 34.7-51.8-16.1-102.2-36.2-150.9-59.9-22.1-11-14.1-41.5 11.1-47.3 22.5-3.5 45.1-5.6 67.9-6.3v-0.6z"  horiz-adv-x="1024" />
      
      <glyph glyph-name="wenzheng" unicode="&#59114;" d="M442.7 683.7c-94 0-138.6-55.9-138.6-138.6H351c2.3 58.2 38 89.4 91.7 91.7 46.9-2.3 67.1-26.8 69.4-69.4 0-22.3-15.7-46.9-46.9-78.3-35.8-33.5-42.5-55.9-42.5-82.8v-46.9h46.9v46.9c0 15.7 8.9 33.5 33.5 58.2 38 33.5 58.2 67.1 58.2 102.9-2.3 67.1-44.8 116.3-118.6 116.3zM420.4 270h46.9v46.9h-46.9V270z m391.2 145.4V735.1s-8.9 62.6-69.4 62.6H98.3v-657.6s8.9-53.7 91.7-53.7c82.8-2.3 252.8 0 252.8 0-9-2 368.8 329 368.8 329z m-391.2-284H189.9c-53.7-2.3-46.9 51.4-46.9 51.4V755.3h597.1c29.1 0 22.3-24.6 22.3-42.5v-275.1l-342-306.3z m492 154.3l-80.6 73.7-13.4 13.4-13.4-13.4-284-263.9-2.3-4.5-29.1-120.8 138.6 24.6 4.5 4.5 292.9 275.1-13.2 11.3z m-304.2-255l-64.9-11.2 13.4 60.3L758 267.7l51.4-49.2-201.2-187.8z m230.4 212.5l-51.4 49.2 31.4 29.1 51.4-49.2-31.4-29.1z m0 0"  horiz-adv-x="1024" />
      
      <glyph glyph-name="yiliaoweisheng1" unicode="&#59143;" d="M955.5968 691.131733H750.933333V827.528533c0 37.4784-30.72 68.130133-68.1984 68.130134H410.077867c-37.546667 0-68.1984-30.72-68.1984-68.130134v-136.3968H137.352533A136.738133 136.738133 0 0 1 0.955733 554.666667v-545.450667c0-75.093333 61.371733-136.3968 136.3968-136.3968h818.244267a136.738133 136.738133 0 0 1 136.328533 136.3968V554.666667A136.738133 136.738133 0 0 1 955.5968 691.2zM410.077867 827.528533h272.725333v-136.3968H410.077867V827.528533zM819.2 213.8112H614.673067v-204.526933H478.276267V213.8112H273.681067V350.208h204.5952V554.666667h136.3968v-204.526934H819.2v-136.3968z"  horiz-adv-x="1092" />
      
      <glyph glyph-name="zhengjianbanli1" unicode="&#59113;" d="M1016.896 589.216v-494.432c0-55.008 10.656-99.968-44.32-99.968H54.24c-54.976 0-47.136 34.656-47.136 89.664V589.216h1009.792zM298.368 494.784a172.704 172.704 0 0 1-172.512-172.48 172.704 172.704 0 0 1 172.48-172.576 172.704 172.704 0 0 1 172.512 172.544 172.736 172.736 0 0 1-172.48 172.48z m571.328-259.488h-270.56v-54.88h270.56v54.88zM298.368 453.152a131.072 131.072 0 0 0 130.912-130.912c0-27.904-8.768-53.824-23.744-75.104a122.656 122.656 0 0 1-58.336 53.44 81.408 81.408 0 0 0-48.832-16.192c-18.304 0-35.2 6.016-48.832 16.192-24.896-10.88-45.44-29.76-58.368-53.44a130.432 130.432 0 0 0-23.744 75.104 131.072 131.072 0 0 0 130.944 130.912z m571.328-104.096h-270.56v-54.912h270.56v54.912zM298.368 433.28a67.136 67.136 0 1 1 0-134.272 67.136 67.136 0 0 1 0 134.272z m571.328 29.504h-270.56v-54.912h270.56v54.912z m101.344 310.4c52.96 0 45.856-44.992 45.856-99.968v-24.704H7.104v24.704c0 54.976-9.696 100 45.312 100h918.624z"  horiz-adv-x="1024" />
      
      <glyph glyph-name="guihuajianshe" unicode="&#59174;" d="M1014.024835 127.939765l-200.904785 200.683921a31.603451 31.603451 0 0 1-44.533961 0l-200.904784-200.683921a31.523137 31.523137 0 0 1 0-44.493804l200.904784-202.270118c12.328157-12.247843 32.225882-12.247843 44.533961 0l200.904785 200.683922a31.523137 31.523137 0 0 1 0 46.08z m-312.721569 0L678.875658 105.512157c-12.328157-12.247843-32.225882-12.247843-44.533961 0a31.523137 31.523137 0 0 0 0 44.493804l22.427608 22.407529a31.603451 31.603451 0 0 0 44.855216-44.493804h-0.321255z m133.923137-44.493804l-66.961568-66.901334c-12.308078-12.247843-32.205804-12.247843-44.533961 0a31.523137 31.523137 0 0 0 0 44.493804l66.961568 66.901334a31.603451 31.603451 0 0 0 54.713726-13.151373 31.523137 31.523137 0 0 0-10.179765-31.342431zM254.638482 440.32L455.543266 641.003922a31.523137 31.523137 0 0 1 0 44.493803L254.638482 886.824157a31.603451 31.603451 0 0 1-44.533961 0L9.199736 685.839059a31.523137 31.523137 0 0 1 0-44.513883l200.904785-200.683921c12.247843-12.328157 32.12549-12.448627 44.533961-0.321255z m22.427607 66.901333a31.603451 31.603451 0 0 0-42.867451 1.646432 31.523137 31.523137 0 0 0-1.666509 42.847372 31.603451 31.603451 0 0 0 44.53396 0 31.523137 31.523137 0 0 0 0-44.493804z m-133.923137 89.308863a31.523137 31.523137 0 0 0 0 44.473726l66.961569 66.901333a31.603451 31.603451 0 0 0 44.533961 0 31.523137 31.523137 0 0 0 0-44.493804l-66.961569-66.881255c-12.308078-12.247843-32.205804-12.247843-44.533961 0z m714.832314-44.493804c12.328157-12.247843 32.225882-12.247843 44.533961 0l66.339137 66.258824a31.523137 31.523137 0 0 1 0.64251 45.116235l-178.798432 178.597647a31.603451 31.603451 0 0 1-45.477647 0l-66.339137-66.258823a31.523137 31.523137 0 0 1 0-44.493804l179.099608-179.220079z m-44.855216-44.815059l-178.778353 178.597647a31.603451 31.603451 0 0 1-44.554039 0L44.598011 141.191529c-6.666039-6.625882-10.039216-15.882039-9.175843-25.258666l15.801725-162.816c1.445647-15.058824 13.372235-26.945255 28.431059-28.390902l162.996706-15.781647c9.356549-0.863373 18.632784 2.489725 25.258667 9.155764L813.12005 462.707451a31.523137 31.523137 0 0 1 0 44.493804z"  horiz-adv-x="1024" />
      
      <glyph glyph-name="shelibiangeng1" unicode="&#59180;" d="M1007.033725 251.361882l-158.84047-168.799372a58.809725 58.809725 0 0 0-65.114353-14.556863c-23.190588 9.436863-38.229333 31.824314-38.229333 57.584941v34.253804H539.748392a38.14902 38.14902 0 0 0-38.068706 38.389961v32.808157l-121.273725-128.803137 121.113098-128.803138v32.808157a38.14902 38.14902 0 0 0 38.068706 38.389961h86.236862a38.14902 38.14902 0 0 0 38.068706-38.389961c0-21.283137-17.106824-38.410039-38.068706-38.410039H577.656471v-33.932549a61.44 61.44 0 0 0-38.249412-57.584941 58.789647 58.789647 0 0 0-65.094275 14.556862l-158.860549 168.799373a62.403765 62.403765 0 0 0 0 85.453804l159.021177 168.799373a58.809725 58.809725 0 0 0 65.094274 14.556862 61.279373 61.279373 0 0 0 38.249412-57.605019v-34.233726h204.920471a38.14902 38.14902 0 0 0 38.068706-38.410039v-32.948706l121.273725 128.803137-121.273725 128.783059v-32.788078a38.14902 38.14902 0 0 0-38.068706-38.41004h-86.216785a38.14902 38.14902 0 0 0-38.088784 38.41004 38.349804 38.349804 0 0 0 38.088784 38.38996h47.987451v34.093177a61.44 61.44 0 0 0 38.229334 57.584941 58.74949 58.74949 0 0 0 21.925647 4.336941 59.231373 59.231373 0 0 0 43.168627-18.873725l158.880628-168.980079c11.183686-11.986824 16.785569-27.186196 16.785568-42.385568V817.091765A78.707451 78.707451 0 0 1 944.650039 896H79.189333A79.10902 79.10902 0 0 1 0 817.111843V-49.091765A79.189333 79.189333 0 0 1 79.189333-128h865.621334C1000.166902-128 1024-80.313725 1024-49.111843V293.767529a62.604549 62.604549 0 0 0-16.966275-42.405647zM213.574275 678.088784h610.625254c14.054902 0 27.186196-7.529412 34.073098-19.857568 7.027451-12.308078 7.027451-27.507451 0-39.835608a39.474196 39.474196 0 0 0-34.073098-19.998118H213.574275a39.55451 39.55451 0 0 0-39.353726 39.835608c0 22.086275 17.749333 39.855686 39.353726 39.855686z m-39.353726-198.896941c0 21.925647 17.588706 39.855686 39.353726 39.855686h266.36047a39.55451 39.55451 0 0 0 39.353726-39.855686c0-21.905569-17.608784-39.835608-39.353726-39.835608H213.574275a39.835608 39.835608 0 0 0-39.353726 39.835608z"  horiz-adv-x="1024" />
      
      <glyph glyph-name="huiyinbi" unicode="&#59107;" d="M994.986667 551.708444h-391.907556a29.013333 29.013333 0 0 1-29.127111-28.956444v-317.098667a29.013333 29.013333 0 0 1 29.127111-28.785777h61.838222l30.264889-110.364445 111.957334 110.364445h187.847111a29.013333 29.013333 0 0 1 29.013333 28.785777V522.752a29.013333 29.013333 0 0 1-29.013333 28.956444z m-29.411556-301.624888c0-13.027556-10.638222-16.384-23.779555-16.384h-159.687112l-57.230222-56.661334-15.36 56.376889-53.304889 0.284445c-13.141333 0-23.779556 3.356444-23.779555 16.384V478.435556c0 13.027556 10.638222 16.440889 23.779555 16.440888h285.525334c13.141333 0 23.779556-3.413333 23.779555-16.440888v-228.352h0.056889z m-229.774222 111.388444c0-15.872-13.027556-28.785778-29.070222-28.785778s-29.070222 12.913778-29.070223 28.785778c0 15.928889 13.027556 28.842667 29.070223 28.842667s29.070222-12.856889 29.070222-28.842667z m92.956444 0a29.013333 29.013333 0 0 0-29.127111-28.785778 28.956444 28.956444 0 0 0-29.013333 28.785778c0 15.928889 13.027556 28.842667 29.013333 28.842667 16.156444 0 29.127111-12.856889 29.127111-28.842667z m93.013334 0a29.013333 29.013333 0 0 0-29.127111-28.785778 28.956444 28.956444 0 0 0-29.013334 28.785778c0 15.928889 13.027556 28.842667 29.013334 28.842667 16.099556 0 29.127111-12.856889 29.127111-28.842667zM612.693333 637.838222H211.342222a29.013333 29.013333 0 0 0-29.013333 28.842667 29.013333 29.013333 0 0 0 29.013333 28.899555h401.351111a29.013333 29.013333 0 0 0 29.013334-28.899555 29.013333 29.013333 0 0 0-29.013334-28.842667zM211.342222 517.632H384v-57.685333H211.342222a29.013333 29.013333 0 0 0-29.013333 28.899555c0 15.872 13.027556 28.785778 29.013333 28.785778z m612.579556-524.060444l-0.056889-0.512h0.056889v-92.16a29.013333 29.013333 0 0 0-29.013334-28.899556H29.070222A29.013333 29.013333 0 0 0 0-99.100444V867.157333A29.013333 29.013333 0 0 0 29.070222 896h765.895111c16.042667 0 29.013333-12.970667 29.013334-28.842667v-219.591111h-0.113778c-0.739556-15.416889-13.368889-27.648-29.070222-27.648s-28.444444 12.231111-29.127111 27.648h-0.113778V813.624889a24.860444 24.860444 0 0 1-24.917334 24.746667H83.342222a24.803556 24.803556 0 0 1-24.917333-24.746667v-859.192889c0-13.653333 11.093333-24.746667 24.917333-24.746667H740.693333a24.860444 24.860444 0 0 1 24.917334 24.746667v38.627556h0.056889l-0.056889 0.512a29.127111 29.127111 0 0 0 58.311111 0z"  horiz-adv-x="1024" />
      
      <glyph glyph-name="gonggaogongshi" unicode="&#59252;" d="M798.1 513.5H665.3L561.4 617.4c14.4 24 9.2 54.9-12.2 73-21.4 18-52.7 17.9-74-0.3-21.2-18.2-26.1-49.2-11.6-73.1L360.3 513.5H226.9c-10.4-0.1-18.9-8.6-18.8-19V114c0-10.4 8.4-18.9 18.8-19h571.3c10.4 0.1 18.9 8.6 18.9 19V494.4c-0.1 10.5-8.5 19-19 19.1z m-304.5 79.4c12.4-4.4 26.1-4.4 38.5 0l79.6-79.6H414l79.6 79.6zM284.1 399.4h190.3v-38.1H284.1v38.1z m304.5-190.3H284.1v38.1h304.5v-38.1z m114.2 76.1H284.1v38h418.7v-38z m0 0"  horiz-adv-x="1024" />
      
      <glyph glyph-name="niandujihua" unicode="&#59108;" d="M786.176 347.584a237.76 237.76 0 0 1-237.76-237.76 237.792 237.792 0 1 1 237.76 237.76z m0-422.752a185.152 185.152 0 0 0-184.928 184.96 185.152 185.152 0 0 0 184.928 184.928 185.184 185.184 0 0 0 184.992-184.928 185.184 185.184 0 0 0-184.992-184.96z m131.424 264.736l-3.008 3.168a22.144 22.144 0 0 1-31.2 0.864l-128.736-120.992-62.656 65.824c-8.384 8.8-22.368 9.184-31.2 0.864s-9.248-22.208-0.864-31.008l75.808-79.68a22.144 22.144 0 0 1 15.808-6.88 22.208 22.208 0 0 1 24.064 4.16l141.088 132.64a21.824 21.824 0 0 1 0.896 31.04zM699.584 896H144.576A144.992 144.992 0 0 1 0 751.424v-703.136c0-79.488 65.056-156.704 144.576-156.704h467.84a280.32 280.32 0 0 0-58.496 63.52H166.464c-55.52 0-100.928 52.512-100.928 108V735.552a97.216 97.216 0 0 0 96.928 96.928h501.92a113.504 113.504 0 0 0 113.184-113.216V388.48c2.88 0.096 5.696 0.448 8.576 0.448 19.872 0 39.264-2.144 57.952-6.112V751.424A144.928 144.928 0 0 1 699.584 896z m-104.832-306.528v29.76a17.6 17.6 0 0 1-17.6 17.632H147.36a17.6 17.6 0 0 1-17.632-17.632v-29.76c0-9.728 7.872-17.6 17.632-17.6h429.824a17.536 17.536 0 0 1 17.568 17.6z m-99.168-194.784v29.76a17.632 17.632 0 0 1-17.632 17.6H146.336a17.6 17.6 0 0 1-17.632-17.6v-29.76a17.6 17.6 0 0 1 17.632-17.632h331.616a17.632 17.632 0 0 1 17.632 17.632zM146.336 247.648a17.568 17.568 0 0 1-17.632-17.6v-29.76a17.6 17.6 0 0 1 17.632-17.632h278.752a17.6 17.6 0 0 1 17.632 17.632v29.76a17.6 17.6 0 0 1-17.632 17.6H146.336z"  horiz-adv-x="1024" />
      
      <glyph glyph-name="xinxiduanxinxiaoxitixingyoujiansixinyouxiang" unicode="&#59111;" d="M910.222 621.511v49.522H113.778v-54.926l386.39-263.31c0.71-0.484 1.507-0.484 2.332 0.056L907.093 619.72a28.729 28.729 0 0 0 3.13 1.764z m0-67.897L534.102 305.58c-19.912-13.483-46.08-13.37-65.963 0.199L113.778 547.27v-445.099h796.444V553.614zM113.778 727.98h796.444a56.889 56.889 0 0 0 56.89-56.89v-568.888a56.889 56.889 0 0 0-56.89-56.889H113.778a56.889 56.889 0 0 0-56.89 56.889V671.09a56.889 56.889 0 0 0 56.89 56.889z"  horiz-adv-x="1024" />
      
      <glyph glyph-name="zhengwuyaowen" unicode="&#59391;" d="M858.9 766.9H164.5c-55.1 0-100-46.1-100-102.6v-561.1c0-56.6 44.9-102.7 100-102.7h694.4c55.1 0 100 46 100 102.7v561c-0.1 56.6-45 102.7-100 102.7zM197.8 594.8c0 16.6 13.5 30.1 30.1 30.1h567.4c16.6 0 30.1-13.5 30.1-30.1s-13.5-30.1-30.1-30.1H227.9c-16.6 0-30.1 13.5-30.1 30.1zM469 178.4c0-16.6-13.5-30.1-30.1-30.1h-211c-16.6 0-30.1 13.5-30.1 30.1V470.7c0 16.6 13.5 30.1 30.1 30.1h210.9c16.6 0 30.1-13.5 30.1-30.1v-292.3z m304.7 0c0-16.6-13.5-30.1-30.1-30.1H570.2c-16.6 0-30.1 13.5-30.1 30.1s13.5 30.1 30.1 30.1h173.4c16.6 0 30.1-13.5 30.1-30.1z m51.8 145c0-16.6-13.5-30.1-30.1-30.1H570.2c-16.6 0-30.1 13.5-30.1 30.1v26.2c0 16.6 13.5 30.1 30.1 30.1h225.2c16.6 0 30.1-13.5 30.1-30.1v-26.2z m0 148.1c0-16.6-13.5-30.1-30.1-30.1H570.2c-16.6 0-30.1 13.5-30.1 30.1s13.5 30.1 30.1 30.1h225.2c16.6 0.1 30.1-13.4 30.1-30.1z"  horiz-adv-x="1024" />
      
      <glyph glyph-name="bumen1" unicode="&#59105;" d="M424.501685-72.086817c-27.301502 5.965582-43.796499 11.050996-49.566489 15.370338-6.976145 5.101714-12.224553 20.276459-15.712625 45.866524a209.105057 209.105057 0 0 0-1.776635 21.61301v10.170828c-3.797761-9.078768-12.273451-14.669464-23.487442-14.669464h-77.030985c-15.419236 0-25.687861 10.464218-25.687861 26.160544V189.40452600000003c0 15.696326 10.284924 26.160544 25.687861 26.160543h77.079883c11.23029 0 19.70598-5.558097 23.487442-14.669463a29.730113 29.730113 0 0 0 2.200419-11.523679v-130.362635q1.466946 13.512206 3.862959 28.377262 5.688492 34.571036 28.572856 52.369986a175.91947 175.91947 0 0 0 53.90213 28.067574q30.968868 10.464218 63.893664 18.744315c1.352851 0.358587 2.673102 0.733473 4.009654 1.10836V267.96765400000004c0 15.696326 10.268625 26.160544 25.687861 26.160544H617.665925c-0.146695 3.928156-0.342287 7.970409-0.619378 12.159356-1.271354 14.946554-6.193774 26.53543-14.669464 34.571036q-14.050086 13.186218-29.110736 25.247777a57.047915 57.047915 0 0 0-13.300313 18.271632q-3.471773 7.155438-6.519762 14.457572h-13.772997c-15.419236 0-25.687861 10.464218-25.687861 26.160544v32.321719c-4.303043 5.590696-8.051906 13.463308-10.969499 23.764531-3.259881 10.692409-4.38454 20.162363-3.422875 28.491359a83.322555 83.322555 0 0 0 5.232109 21.987896 71.472888 71.472888 0 0 0 11.409583 19.673381 440.083915 440.083915 0 0 0 3.846659 71.049103c0.733473 5.75369 1.62994 11.621475 2.722001 17.587057-5.623294 4.596432-8.883175 11.76817-8.883175 20.586148V738.971539c0 15.696326 10.268625 26.160544 25.687861 26.160544h38.156905a167.671972 167.671972 0 0 0 25.655262 23.063657 207.703309 207.703309 0 0 0 91.374461 38.890379 284.326808 284.326808 0 0 0 45.002655 3.716264 209.235453 209.235453 0 0 0 52.875267-6.519762l0.766072-0.211892V896H78.986913l0.651976-887.078778H0v-107.282679h583.844661q-32.435814 4.074851-64.04036 9.04617-54.342214 8.296397-95.302616 17.22847zM231.239648 738.971539c0 15.696326 10.284924 26.160544 25.687861 26.160544h77.079883c11.23029 0 19.70598-5.574396 23.487442-14.669464a29.730113 29.730113 0 0 0 2.200419-11.523679v-78.481631a29.730113 29.730113 0 0 0-2.200419-11.523679c-3.797761-9.078768-12.273451-14.669464-23.487442-14.669464h-77.079883c-15.419236 0-25.687861 10.464218-25.687861 26.160544z m0-235.510092c0 15.696326 10.284924 26.160544 25.687861 26.160544h77.079883c11.23029 0 19.70598-5.558097 23.487442-14.669464a29.730113 29.730113 0 0 0 2.200419-11.523679V424.930917a29.730113 29.730113 0 0 0-2.200419-11.523679c-3.797761-9.078768-12.273451-14.669464-23.487442-14.669463h-77.079883c-15.419236 0-25.687861 10.464218-25.687861 26.160543zM1137.160537 71.91841999999997a177.663507 177.663507 0 0 1-6.959845 34.619934 78.644626 78.644626 0 0 1-28.214269 38.124307 193.147941 193.147941 0 0 1-45.002655 23.829729 508.785904 508.785904 0 0 1-52.484082 16.299404 448.412911 448.412911 0 0 0-50.05547 15.680027q-24.88919 10.12193-39.558655 22.607274t-21.189225 26.633226a81.497021 81.497021 0 0 0-7.367331 28.002377 111.91171 111.91171 0 0 0 1.809234 27.545993 67.446935 67.446935 0 0 0 5.688492 18.434626 42.981529 42.981529 0 0 0 9.111367 13.039524 92.906604 92.906604 0 0 0 12.827631 10.38272 149.335142 149.335142 0 0 1 15.680027 12.094158 59.264634 59.264634 0 0 1 13.479608 17.635956c4.009653 7.530325 7.432528 15.288841 10.692409 23.096256q4.64533 13.854494 8.296397 28.018675a45.279745 45.279745 0 0 1 17.424063 9.926338 58.677855 58.677855 0 0 1 13.300314 17.635955c4.009653 7.530325 6.796852 17.50556 8.769079 30.186497a72.597547 72.597547 0 0 1-0.521581 24.449106 59.623221 59.623221 0 0 1-6.030779 16.299404 23.422244 23.422244 0 0 1-10.154529 10.773907 393.255727 393.255727 0 0 1-4.531235 72.22266 385.855797 385.855797 0 0 1-16.022314 65.425809 202.210409 202.210409 0 0 1-34.538438 63.665473 140.794254 140.794254 0 0 1-26.600628 24.823992 220.987323 220.987323 0 0 1-37.73312 22.020496A257.253498 257.253498 0 0 1 822.43534 801.447156l-0.749772 0.195593a201.933319 201.933319 0 0 1-51.033435 6.340468 274.41677 274.41677 0 0 1-43.437912-3.585869 200.482672 200.482672 0 0 1-88.196077-37.48863 161.820486 161.820486 0 0 1-24.758795-22.248687h-1.466946a197.499881 197.499881 0 0 1-14.441272-17.929344 201.65623 201.65623 0 0 1-27.986078-58.677856 422.969541 422.969541 0 0 1-10.65981-44.399577c0.423785-0.342287 0.863868-0.651976 1.303952-0.977964-0.961665-5.411402-1.809234-10.757607-2.46121-16.006015a424.795074 424.795074 0 0 1-3.716264-68.571594 68.979079 68.979079 0 0 1-11.034696-18.988806 80.421261 80.421261 0 0 1-5.052816-21.189225c-0.929066-8.035606 0.179293-17.179572 3.259881-27.497095a72.51605 72.51605 0 0 1 9.127666-20.912136v-2.037426l0.325989-0.440084a82.491285 82.491285 0 0 1 11.963762-12.664637 40.944104 40.944104 0 0 1 12.892829-6.324168q4.38454-14.033787 9.176565-27.953479c1.189857-3.047989 2.444911-6.079678 3.732563-9.078768h1.466947q3.01539-7.057642 6.356767-13.95229a55.075687 55.075687 0 0 1 12.827631-17.635955q14.522769-11.621475 28.100173-24.36761c8.247499-7.758516 13.039523-18.939908 14.22938-33.36488 0.26079-4.058552 0.456383-7.954109 0.586779-11.735571q0.26079-7.057642 0.27709-13.593704a61.693245 61.693245 0 0 0-4.12375-22.525776 63.567677 63.567677 0 0 0-14.669463-21.743406c-7.090241-7.12284-17.016578-14.669464-29.84421-22.590974a191.958084 191.958084 0 0 0-51.799506-22.313884c-1.287653-0.358587-2.559006-0.733473-3.879259-1.075761q-31.800138-8.035606-61.660646-18.092339a169.790894 169.790894 0 0 1-52.027698-27.08961q-22.036795-17.114374-27.578592-50.528153-2.314515-14.343476-3.716265-27.382999v-25.573765a28.686952 28.686952 0 0 0-2.118922-11.116194v-9.779643a201.802924 201.802924 0 0 1 1.62994-20.863237c3.373977-24.693597 8.426792-39.346762 15.158446-44.269182 5.574396-4.156348 21.482615-9.062469 47.838752-14.832458s57.047915-11.295487 91.977538-16.641692q30.430988-4.889821 61.807341-8.720181 22.656172-2.852396 45.768727-5.313606c36.755157-3.879258 68.68569-5.932983 95.579707-5.932983 17.701153 0 38.776283 0.847569 62.932 2.787198s49.224201 4.058552 74.977259 7.253235 51.620213 6.389366 77.682961 10.382721 49.419794 8.149702 70.380828 12.599439A519.755403 519.755403 0 0 1 1100.209788-52.96761600000002q21.596711 7.188037 26.242041 13.528506c4.237845 6.519762 7.546624 16.299404 9.632948 28.866245a239.421949 239.421949 0 0 1 3.259881 40.145432c0.032599 13.984889-0.782371 28.067574-2.184121 42.345853zM651.813177 744.529636c14.881356 0 24.791394-10.105631 24.791393-25.264076v-75.759631c0-15.158446-9.910038-25.264077-24.791393-25.264077h-1.466947c14.881356 0 24.791394 10.105631 24.791394 25.264077v75.759631c0 15.142147-9.910038 25.264077-24.791394 25.264076z m0-353.566677h-1.466947c14.881356 0 24.791394 10.105631 24.791394 25.247777v75.759631c0 15.158446-9.910038 25.247777-24.791394 25.247777h1.466947c14.881356 0 24.791394-10.105631 24.791393-25.247777v-75.759631c0-15.158446-9.910038-25.264077-24.791393-25.264077zM357.445936 20.933883000000037a29.730113 29.730113 0 0 1 2.200419 11.523679V59.00929199999996q-1.792934-16.511297-2.200419-30.968869z"  horiz-adv-x="1171" />
      
      <glyph glyph-name="qingdan1" unicode="&#59106;" d="M288.2 757.3V720c0-41.1 33.6-74.7 74.6-74.7h298.4c41 0 74.6 33.6 74.6 74.7v37.3h111.9c18.7 0 37.3-14.9 37.3-37.3v-746.7c0-22.4-18.7-37.3-37.3-37.3H176.3c-18.7 0-37.3 14.9-37.3 37.3V720c0 22.4 18.7 37.3 37.3 37.3h111.9z m74.6-280c0-11.2 7.5-18.7 18.7-18.7h261.1c11.2 0 18.7 7.5 18.7 18.7s-7.5 18.7-18.7 18.7H381.4c-11.1 0-18.6-7.5-18.6-18.7zM288.2 328c0-11.2 7.5-18.7 18.7-18.7h410.3c11.2 0 18.7 7.5 18.7 18.7s-7.5 18.7-18.7 18.7H306.8c-11.1 0-18.6-7.5-18.6-18.7z m0-149.3c0-11.2 7.5-18.7 18.7-18.7h410.3c11.2 0 18.7 7.5 18.7 18.7s-7.5 18.7-18.7 18.7H306.8c-11.1-0.1-18.6-7.5-18.6-18.7z m37.3 616c0 22.4 18.7 37.3 37.3 37.3h298.4c18.6 0 37.3-14.9 37.3-37.3V720c0-22.4-18.6-37.3-37.3-37.3H362.8c-18.7 0-37.3 14.9-37.3 37.3v74.7z m0 0"  horiz-adv-x="1024" />
      
      <glyph glyph-name="rili2" unicode="&#59104;" d="M505.6-32h-400c-35.2 0-64 9.6-86.4 32-9.6 9.6-12.8 22.4-12.8 35.2v608c0 35.2 38.4 64 83.2 67.2h83.2c12.8 0 19.2 3.2 19.2 12.8v25.6c6.4 25.6 25.6 38.4 57.6 38.4 25.6 0 44.8-16 48-41.6v-3.2c3.2-35.2 3.2-35.2 44.8-35.2h348.8c16 0 22.4 3.2 22.4 16v22.4c3.2 25.6 25.6 38.4 54.4 38.4 28.8 0 48-16 51.2-38.4 0-12.8-6.4-28.8 3.2-35.2 12.8-6.4 32-3.2 48-3.2h48c48-3.2 86.4-32 86.4-70.4v-601.6c0-41.6-41.6-70.4-99.2-73.6-128 6.4-265.6 6.4-400 6.4z m3.2 547.2h-400c-16 0-22.4-3.2-22.4-16v-441.6c0-19.2 9.6-22.4 28.8-22.4h787.2c28.8 0 28.8 0 28.8 22.4v438.4c0 16-3.2 19.2-22.4 19.2h-400zM259.2 131.2h-51.2c-22.4 0-32 9.6-35.2 25.6v54.4c0 16 12.8 25.6 32 25.6h108.8c22.4 0 32-9.6 32-28.8v-51.2c0-16-9.6-25.6-32-25.6H259.2zM508.8 131.2h-51.2c-22.4 0-35.2 9.6-35.2 25.6v51.2c0 19.2 9.6 25.6 32 28.8h105.6c19.2 0 32-9.6 32-25.6v-54.4c0-16-12.8-25.6-32-25.6h-51.2zM758.4 236.8h54.4c19.2 0 32-9.6 28.8-25.6v-57.6c0-16-12.8-25.6-32-25.6h-108.8c-19.2 0-32 9.6-32 25.6v54.4c0 16 12.8 25.6 32 25.6 19.2 6.4 38.4 3.2 57.6 3.2zM508.8 313.6h-54.4c-22.4 0-32 6.4-32 25.6v57.6c0 16 9.6 22.4 28.8 22.4h112c19.2 0 28.8-9.6 32-25.6v-54.4c0-16-9.6-25.6-32-25.6h-54.4zM259.2 419.2h54.4c19.2 0 32-9.6 32-22.4v-57.6c0-16-9.6-22.4-28.8-22.4h-112c-19.2 0-28.8 6.4-28.8 22.4v60.8c0 16 12.8 22.4 32 22.4 16-3.2 32-3.2 51.2-3.2zM755.2 313.6h-54.4c-19.2 0-32 9.6-32 25.6v57.6c0 16 9.6 22.4 28.8 22.4h112c19.2 0 28.8-9.6 28.8-22.4v-57.6c0-12.8-9.6-22.4-28.8-22.4-16-3.2-35.2-3.2-54.4-3.2z"  horiz-adv-x="1024" />
      
      <glyph glyph-name="yijianshifuwu" unicode="&#59097;" d="M516.8 852.79999969C257.91999969 852.79999969 48.00000031 642.88000031 48.00000031 384s209.92000031-468.79999969 468.79999969-468.79999969S985.59999969 125.11999968999999 985.59999969 384 775.68000031 852.79999969 516.8 852.79999969z m-50.56000031-766.71999938c-151.36000031 16.63999969-269.11999969 143.35999969-269.11999969 297.6 0 165.43999969 135.67999969 299.83999969 303.04000031 299.83999969 89.59999969 0 169.92-38.71999969 225.27999938-99.84h-105.6c-35.20000031 20.80000031-75.52000031 33.28000031-119.67999938 33.28000031-130.24000031 0-235.51999969-104.32000031-235.52000062-233.28 0-117.43999969 88.00000031-213.43999969 201.92000062-229.76000062v-67.83999938z m370.24000031 31.35999938c0-18.24-15.04000031-33.28000031-33.6-33.27999938h-269.11999969c-18.55999969 0-33.6 15.04000031-33.6 33.27999938v33.28000031c0 18.24 15.04000031 33.28000031 33.6 33.28000031h69.75999938l30.40000031 171.19999969h-83.20000031l12.80000062 72.31999969c62.08000031 0 103.03999969 26.88 123.19999969 80.32000031h79.03999969l-57.6-323.83999969h94.72000031c18.55999969 0 33.6-15.04000031 33.6-33.28000031v-33.28000031z"  horiz-adv-x="1024" />
      
      <glyph glyph-name="zhuanlan" unicode="&#59103;" d="M113.174226 885.760108h797.651548c38.398593 0 69.116268-31.229669 69.116268-69.116267v-874.959729c0-38.397593-31.229669-69.628262-69.116268-69.628263-7.679919 0-14.846843 1.023989-22.014767 3.583962l-354.79624 118.265747a71.849239 71.849239 0 0 1-44.029534 0l-354.79624-118.265747c-36.349615-12.28787-75.772197 7.679919-87.548073 44.029534-2.559973 7.167924-3.582962 14.334848-3.582962 22.014767V816.644841C43.544964 854.530439 74.774633 885.760108 113.174226 885.760108zM295.436295 608.273049c-24.062745 0-43.518539-19.454794-43.518539-43.517539s19.455794-43.518539 43.518539-43.518539h433.639405c24.062745 0 43.518539 19.455794 43.518539 43.518539s-19.455794 43.517539-43.518539 43.517539H295.436295z m0-242.675429c-24.062745 0-43.518539-19.454794-43.518539-43.517539s19.455794-43.517539 43.518539-43.517539h433.639405c24.062745 0 43.518539 19.454794 43.518539 43.517539s-19.455794 43.517539-43.518539 43.517539H295.436295z"  horiz-adv-x="1024" />
      
      <glyph glyph-name="guanbi2" unicode="&#59096;" d="M512 852C253.6 852 44 642.4 44 384s209.6-468 468-468 468 209.6 468 468S770.4 852 512 852z m192.8-652c-9.6-9.6-27.2-9.6-36.8 0L520.8 347.2 373.6 200c-9.6-9.6-27.2-9.6-36.8 0s-9.6 27.2 0 36.8L484 384 336.8 531.2c-9.6 9.6-9.6 27.2 0 36.8 9.6 9.6 27.2 9.6 36.8 0l147.2-146.4L667.2 568c10.4 9.6 27.2 9.6 36.8 0 9.6-9.6 9.6-27.2 0-36.8L557.6 384l147.2-147.2c9.6-9.6 9.6-27.2 0-36.8z"  horiz-adv-x="1024" />
      
      <glyph glyph-name="dianhua" unicode="&#59095;" d="M774.656 476.16c0-19.968 13.312-33.792 33.792-33.792 20.48 0 33.792 13.312 33.792 33.792-0.512 111.616-90.624 202.24-202.752 202.752-20.48 0-33.792-13.312-33.792-33.792s13.312-33.792 33.792-33.792c74.752-0.512 135.168-60.928 135.168-135.168zM909.824 476.16c0-19.968 13.312-33.792 33.792-33.792 20.48 0 33.792 13.312 33.792 33.792 0 185.856-152.064 337.408-337.408 337.408-20.48 0-33.792-13.312-33.792-33.792S619.52 745.984 640 745.984c148.48 0 269.824-121.344 269.824-269.824z m-590.848 33.792c7.68-47.616 49.152-227.84 241.664-316.416 8.704-4.096 18.432-3.072 26.112 2.56 27.136 19.456 90.112 64.512 102.912 73.728 19.456 14.336 54.784 27.648 83.968-0.512l153.6-143.872s22.528-36.864 6.656-56.832C889.344 14.848 788.48-97.28 788.48-97.28s-18.944-23.04-56.832-9.728c-61.44 22.016-269.824 128-437.248 326.656C130.56 414.208 87.04 581.632 55.296 698.88c-10.752 38.4-4.608 73.216 24.576 86.528 37.888 17.408 201.216 93.696 201.216 93.696s37.888 10.24 54.272-18.944c16.384-29.184 108.032-155.136 119.296-175.104 13.312-23.04 5.12-42.496-6.656-52.736-14.336-12.288-95.232-80.384-122.368-102.912-5.12-4.608-8.192-12.288-6.656-19.456z"  horiz-adv-x="1024" />
      
      </font>
</defs>
</svg>
